<?xml version="1.0" encoding="utf-8" standalone="no"?>
<!DOCTYPE svg PUBLIC "-//W3C//DTD SVG 1.1//EN"
  "http://www.w3.org/Graphics/SVG/1.1/DTD/svg11.dtd">
<svg height="432pt" version="1.1" viewBox="0 0 576 432" width="576pt" xmlns="http://www.w3.org/2000/svg" xmlns:xlink="http://www.w3.org/1999/xlink">
 <metadata>
  <rdf:RDF xmlns:cc="http://creativecommons.org/ns#" xmlns:dc="http://purl.org/dc/elements/1.1/" xmlns:rdf="http://www.w3.org/1999/02/22-rdf-syntax-ns#">
   <cc:Work>
    <dc:type rdf:resource="http://purl.org/dc/dcmitype/StillImage"/>
    <dc:date>2021-06-07T23:32:54.808141</dc:date>
    <dc:format>image/svg+xml</dc:format>
    <dc:creator>
     <cc:Agent>
      <dc:title>Matplotlib v3.4.2, https://matplotlib.org/</dc:title>
     </cc:Agent>
    </dc:creator>
   </cc:Work>
  </rdf:RDF>
 </metadata>
 <defs>
  <style type="text/css">*{stroke-linecap:butt;stroke-linejoin:round;}</style>
 </defs>
 <g id="figure_1">
  <g id="patch_1">
   <path d="M 0 432 
L 576 432 
L 576 0 
L 0 0 
z
" style="fill:#ffffff;"/>
  </g>
  <g id="axes_1">
   <g id="patch_2">
    <path d="M 145.564 295.672 
L 430.436 295.672 
L 430.436 10.8 
L 145.564 10.8 
z
" style="fill:#ffffff;"/>
   </g>
   <g id="PathCollection_1">
    <path clip-path="url(#p6c50d0fb44)" d="M 389.74 239.579687 
L 391.3444 237.534857 
L 389.74 234.507413 
L 384.630426 237.534857 
z
" style="fill:#045382;"/>
   </g>
   <g id="PathCollection_2">
    <path clip-path="url(#p6c50d0fb44)" d="M 383.926286 249.195063 
L 389.74 249.731588 
L 391.68558 249.162286 
L 395.553714 247.321075 
L 399.157597 243.348571 
L 401.127072 237.534857 
L 399.793702 231.721143 
L 395.553714 226.402122 
L 394.641873 225.907429 
L 389.74 224.35427 
L 383.926286 224.930368 
L 382.029743 225.907429 
L 378.112571 229.364842 
L 376.635982 231.721143 
L 375.591106 237.534857 
L 377.143725 243.348571 
L 378.112571 244.706022 
L 383.85759 249.162286 
z
M 384.630426 237.534857 
L 389.74 234.507413 
L 391.3444 237.534857 
L 389.74 239.579687 
z
" style="fill:#187cb6;"/>
   </g>
   <g id="PathCollection_3">
    <path clip-path="url(#p6c50d0fb44)" d="M 372.298857 274.638017 
L 378.112571 276.612632 
L 383.926286 277.706702 
L 389.74 277.92005 
L 395.553714 277.252523 
L 401.367429 275.703991 
L 407.181143 273.274345 
L 408.686433 272.417143 
L 412.994857 269.524885 
L 416.432046 266.603429 
L 418.808571 264.143653 
L 421.486268 260.789714 
L 424.622286 255.768557 
L 425.044054 254.976 
L 427.27715 249.162286 
L 428.649593 243.348571 
L 429.16156 237.534857 
L 428.813204 231.721143 
L 427.604658 225.907429 
L 425.536033 220.093714 
L 424.622286 218.279813 
L 422.257853 214.28 
L 418.808571 209.76941 
L 417.602892 208.466286 
L 412.994857 204.407111 
L 410.473888 202.652571 
L 407.181143 200.718615 
L 401.367429 198.21129 
L 396.380463 196.838857 
L 395.553714 196.642052 
L 389.74 196.043082 
L 383.926286 196.229167 
L 380.276805 196.838857 
L 378.112571 197.256885 
L 372.298857 199.287761 
L 366.485143 202.226815 
L 365.841775 202.652571 
L 360.671429 206.707643 
L 358.857458 208.466286 
L 354.857714 213.225366 
L 354.113538 214.28 
L 350.943628 220.093714 
L 349.044 225.029765 
L 348.752932 225.907429 
L 347.628318 231.721143 
L 347.307169 237.534857 
L 347.789368 243.348571 
L 349.044 249.023059 
L 349.079715 249.162286 
L 351.502971 254.976 
L 354.857714 260.789634 
L 354.857769 260.789714 
L 359.961819 266.603429 
L 360.671429 267.267407 
L 366.485143 271.669766 
L 367.776465 272.417143 
z
M 383.85759 249.162286 
L 378.112571 244.706022 
L 377.143725 243.348571 
L 375.591106 237.534857 
L 376.635982 231.721143 
L 378.112571 229.364842 
L 382.029743 225.907429 
L 383.926286 224.930368 
L 389.74 224.35427 
L 394.641873 225.907429 
L 395.553714 226.402122 
L 399.793702 231.721143 
L 401.127072 237.534857 
L 399.157597 243.348571 
L 395.553714 247.321075 
L 391.68558 249.162286 
L 389.74 249.731588 
L 383.926286 249.195063 
z
" style="fill:#75a9cf;"/>
   </g>
   <g id="PathCollection_4">
    <path clip-path="url(#p6c50d0fb44)" d="M 273.465714 295.672 
L 279.279429 295.672 
L 285.093143 295.672 
L 290.906857 295.672 
L 296.720571 295.672 
L 302.534286 295.672 
L 308.348 295.672 
L 314.161714 295.672 
L 319.975429 295.672 
L 325.789143 295.672 
L 331.602857 295.672 
L 337.416571 295.672 
L 343.230286 295.672 
L 349.044 295.672 
L 354.857714 295.672 
L 360.671429 295.672 
L 366.485143 295.672 
L 372.298857 295.672 
L 378.112571 295.672 
L 383.926286 295.672 
L 389.74 295.672 
L 395.553714 295.672 
L 401.367429 295.672 
L 407.181143 295.672 
L 412.994857 295.672 
L 418.808571 295.672 
L 424.622286 295.672 
L 430.436 295.672 
L 430.436 289.858286 
L 430.436 284.044571 
L 430.436 278.230857 
L 430.436 272.417143 
L 430.436 266.603429 
L 430.436 260.789714 
L 430.436 254.976 
L 430.436 249.162286 
L 430.436 243.348571 
L 430.436 237.534857 
L 430.436 231.721143 
L 430.436 225.907429 
L 430.436 220.093714 
L 430.436 214.28 
L 430.436 208.466286 
L 430.436 202.652571 
L 430.436 196.838857 
L 430.436 191.025143 
L 430.436 185.211429 
L 430.436 179.397714 
L 430.436 173.584 
L 430.436 167.770286 
L 430.436 161.956571 
L 430.436 156.142857 
L 430.436 150.329143 
L 430.436 144.515429 
L 430.436 138.701714 
L 430.436 132.888 
L 430.436 127.074286 
L 430.436 121.260571 
L 430.436 115.446857 
L 430.436 114.356206 
L 424.622286 112.519796 
L 418.808571 110.954936 
L 412.994857 109.661629 
L 412.832775 109.633143 
L 407.181143 108.684171 
L 401.367429 107.967435 
L 395.553714 107.51016 
L 389.74 107.312354 
L 383.926286 107.374029 
L 378.112571 107.695198 
L 372.298857 108.275876 
L 366.485143 109.116081 
L 363.751759 109.633143 
L 360.671429 110.243032 
L 354.857714 111.665808 
L 349.044 113.360296 
L 343.230286 115.326524 
L 342.917693 115.446857 
L 337.416571 117.66824 
L 331.602857 120.300972 
L 329.69091 121.260571 
L 325.789143 123.319731 
L 319.975429 126.687816 
L 319.362881 127.074286 
L 314.161714 130.534084 
L 310.890566 132.888 
L 308.348 134.822749 
L 303.608779 138.701714 
L 302.534286 139.634786 
L 297.283118 144.515429 
L 296.720571 145.072234 
L 291.736908 150.329143 
L 290.906857 151.265521 
L 286.834466 156.142857 
L 285.093143 158.384073 
L 282.469862 161.956571 
L 279.279429 166.652067 
L 278.559186 167.770286 
L 275.116765 173.584 
L 273.465714 176.640745 
L 272.050275 179.397714 
L 269.352784 185.211429 
L 267.652 189.314003 
L 266.976077 191.025143 
L 264.953338 196.838857 
L 263.204413 202.652571 
L 261.838286 208.036746 
L 261.734208 208.466286 
L 260.586979 214.28 
L 259.701232 220.093714 
L 259.076961 225.907429 
L 258.714157 231.721143 
L 258.612811 237.534857 
L 258.77291 243.348571 
L 259.194439 249.162286 
L 259.877384 254.976 
L 260.821724 260.789714 
L 261.838286 265.691324 
L 262.036354 266.603429 
L 263.572555 272.417143 
L 265.382396 278.230857 
L 267.465848 284.044571 
L 267.652 284.503698 
L 269.930216 289.858286 
L 272.690853 295.672 
z
M 367.776465 272.417143 
L 366.485143 271.669766 
L 360.671429 267.267407 
L 359.961819 266.603429 
L 354.857769 260.789714 
L 354.857714 260.789634 
L 351.502971 254.976 
L 349.079715 249.162286 
L 349.044 249.023059 
L 347.789368 243.348571 
L 347.307169 237.534857 
L 347.628318 231.721143 
L 348.752932 225.907429 
L 349.044 225.029765 
L 350.943628 220.093714 
L 354.113538 214.28 
L 354.857714 213.225366 
L 358.857458 208.466286 
L 360.671429 206.707643 
L 365.841775 202.652571 
L 366.485143 202.226815 
L 372.298857 199.287761 
L 378.112571 197.256885 
L 380.276805 196.838857 
L 383.926286 196.229167 
L 389.74 196.043082 
L 395.553714 196.642052 
L 396.380463 196.838857 
L 401.367429 198.21129 
L 407.181143 200.718615 
L 410.473888 202.652571 
L 412.994857 204.407111 
L 417.602892 208.466286 
L 418.808571 209.76941 
L 422.257853 214.28 
L 424.622286 218.279813 
L 425.536033 220.093714 
L 427.604658 225.907429 
L 428.813204 231.721143 
L 429.16156 237.534857 
L 428.649593 243.348571 
L 427.27715 249.162286 
L 425.044054 254.976 
L 424.622286 255.768557 
L 421.486268 260.789714 
L 418.808571 264.143653 
L 416.432046 266.603429 
L 412.994857 269.524885 
L 408.686433 272.417143 
L 407.181143 273.274345 
L 401.367429 275.703991 
L 395.553714 277.252523 
L 389.74 277.92005 
L 383.926286 277.706702 
L 378.112571 276.612632 
L 372.298857 274.638017 
z
" style="fill:#c0c9e2;"/>
   </g>
   <g id="PathCollection_5">
    <path clip-path="url(#p6c50d0fb44)" d="M 151.377714 295.672 
L 157.191429 295.672 
L 163.005143 295.672 
L 168.818857 295.672 
L 174.632571 295.672 
L 180.446286 295.672 
L 186.26 295.672 
L 192.073714 295.672 
L 197.887429 295.672 
L 203.701143 295.672 
L 209.514857 295.672 
L 215.328571 295.672 
L 221.142286 295.672 
L 226.956 295.672 
L 232.769714 295.672 
L 238.583429 295.672 
L 244.397143 295.672 
L 250.210857 295.672 
L 256.024571 295.672 
L 261.838286 295.672 
L 267.652 295.672 
L 272.690853 295.672 
L 269.930216 289.858286 
L 267.652 284.503698 
L 267.465848 284.044571 
L 265.382396 278.230857 
L 263.572555 272.417143 
L 262.036354 266.603429 
L 261.838286 265.691324 
L 260.821724 260.789714 
L 259.877384 254.976 
L 259.194439 249.162286 
L 258.77291 243.348571 
L 258.612811 237.534857 
L 258.714157 231.721143 
L 259.076961 225.907429 
L 259.701232 220.093714 
L 260.586979 214.28 
L 261.734208 208.466286 
L 261.838286 208.036746 
L 263.204413 202.652571 
L 264.953338 196.838857 
L 266.976077 191.025143 
L 267.652 189.314003 
L 269.352784 185.211429 
L 272.050275 179.397714 
L 273.465714 176.640745 
L 275.116765 173.584 
L 278.559186 167.770286 
L 279.279429 166.652067 
L 282.469862 161.956571 
L 285.093143 158.384073 
L 286.834466 156.142857 
L 290.906857 151.265521 
L 291.736908 150.329143 
L 296.720571 145.072234 
L 297.283118 144.515429 
L 302.534286 139.634786 
L 303.608779 138.701714 
L 308.348 134.822749 
L 310.890566 132.888 
L 314.161714 130.534084 
L 319.362881 127.074286 
L 319.975429 126.687816 
L 325.789143 123.319731 
L 329.69091 121.260571 
L 331.602857 120.300972 
L 337.416571 117.66824 
L 342.917693 115.446857 
L 343.230286 115.326524 
L 349.044 113.360296 
L 354.857714 111.665808 
L 360.671429 110.243032 
L 363.751759 109.633143 
L 366.485143 109.116081 
L 372.298857 108.275876 
L 378.112571 107.695198 
L 383.926286 107.374029 
L 389.74 107.312354 
L 395.553714 107.51016 
L 401.367429 107.967435 
L 407.181143 108.684171 
L 412.832775 109.633143 
L 412.994857 109.661629 
L 418.808571 110.954936 
L 424.622286 112.519796 
L 430.436 114.356206 
L 430.436 109.633143 
L 430.436 103.819429 
L 430.436 98.005714 
L 430.436 92.192 
L 430.436 86.378286 
L 430.436 80.564571 
L 430.436 74.750857 
L 430.436 68.937143 
L 430.436 63.123429 
L 430.436 57.309714 
L 430.436 51.496 
L 430.436 45.682286 
L 430.436 39.868571 
L 430.436 34.054857 
L 430.436 28.241143 
L 430.436 22.427429 
L 430.436 16.613714 
L 430.436 10.8 
L 424.622286 10.8 
L 418.808571 10.8 
L 412.994857 10.8 
L 407.181143 10.8 
L 401.367429 10.8 
L 395.553714 10.8 
L 389.74 10.8 
L 383.926286 10.8 
L 378.112571 10.8 
L 372.298857 10.8 
L 366.485143 10.8 
L 360.671429 10.8 
L 354.857714 10.8 
L 349.044 10.8 
L 343.230286 10.8 
L 337.416571 10.8 
L 331.602857 10.8 
L 325.789143 10.8 
L 319.975429 10.8 
L 314.161714 10.8 
L 308.348 10.8 
L 302.534286 10.8 
L 296.720571 10.8 
L 290.906857 10.8 
L 285.093143 10.8 
L 279.279429 10.8 
L 273.465714 10.8 
L 267.652 10.8 
L 261.838286 10.8 
L 256.024571 10.8 
L 250.210857 10.8 
L 244.397143 10.8 
L 238.583429 10.8 
L 232.769714 10.8 
L 226.956 10.8 
L 221.142286 10.8 
L 215.328571 10.8 
L 209.514857 10.8 
L 203.701143 10.8 
L 197.887429 10.8 
L 192.073714 10.8 
L 186.26 10.8 
L 180.446286 10.8 
L 174.632571 10.8 
L 168.818857 10.8 
L 163.005143 10.8 
L 157.191429 10.8 
L 151.377714 10.8 
L 145.564 10.8 
L 145.564 16.613714 
L 145.564 22.427429 
L 145.564 28.241143 
L 145.564 34.054857 
L 145.564 39.868571 
L 145.564 45.682286 
L 145.564 51.496 
L 145.564 57.309714 
L 145.564 63.123429 
L 145.564 68.937143 
L 145.564 74.750857 
L 145.564 80.564571 
L 145.564 86.378286 
L 145.564 92.192 
L 145.564 98.005714 
L 145.564 103.819429 
L 145.564 109.633143 
L 145.564 115.446857 
L 145.564 121.260571 
L 145.564 127.074286 
L 145.564 132.888 
L 145.564 138.701714 
L 145.564 144.515429 
L 145.564 150.329143 
L 145.564 156.142857 
L 145.564 161.956571 
L 145.564 167.770286 
L 145.564 173.584 
L 145.564 179.397714 
L 145.564 185.211429 
L 145.564 191.025143 
L 145.564 196.838857 
L 145.564 202.652571 
L 145.564 208.466286 
L 145.564 214.28 
L 145.564 220.093714 
L 145.564 225.907429 
L 145.564 231.721143 
L 145.564 237.534857 
L 145.564 243.348571 
L 145.564 249.162286 
L 145.564 254.976 
L 145.564 260.789714 
L 145.564 266.603429 
L 145.564 272.417143 
L 145.564 278.230857 
L 145.564 284.044571 
L 145.564 289.858286 
L 145.564 295.672 
z
" style="fill:#f0eaf4;"/>
   </g>
   <g id="matplotlib.axis_1">
    <g id="xtick_1">
     <g id="line2d_1">
      <path clip-path="url(#p6c50d0fb44)" d="M 174.0512 295.672 
L 174.0512 10.8 
" style="fill:none;stroke:#b0b0b0;stroke-linecap:square;stroke-width:0.8;"/>
     </g>
     <g id="line2d_2">
      <defs>
       <path d="M 0 0 
L 0 3.5 
" id="mae68dfb59b" style="stroke:#000000;stroke-width:0.8;"/>
      </defs>
      <g>
       <use style="stroke:#000000;stroke-width:0.8;" x="174.0512" xlink:href="#mae68dfb59b" y="295.672"/>
      </g>
     </g>
     <g id="text_1">
      <!-- 0 -->
      <g transform="translate(170.86995 310.270437)scale(0.1 -0.1)">
       <defs>
        <path d="M 2034 4250 
Q 1547 4250 1301 3770 
Q 1056 3291 1056 2328 
Q 1056 1369 1301 889 
Q 1547 409 2034 409 
Q 2525 409 2770 889 
Q 3016 1369 3016 2328 
Q 3016 3291 2770 3770 
Q 2525 4250 2034 4250 
z
M 2034 4750 
Q 2819 4750 3233 4129 
Q 3647 3509 3647 2328 
Q 3647 1150 3233 529 
Q 2819 -91 2034 -91 
Q 1250 -91 836 529 
Q 422 1150 422 2328 
Q 422 3509 836 4129 
Q 1250 4750 2034 4750 
z
" id="DejaVuSans-30" transform="scale(0.015625)"/>
       </defs>
       <use xlink:href="#DejaVuSans-30"/>
      </g>
     </g>
    </g>
    <g id="xtick_2">
     <g id="line2d_3">
      <path clip-path="url(#p6c50d0fb44)" d="M 231.0256 295.672 
L 231.0256 10.8 
" style="fill:none;stroke:#b0b0b0;stroke-linecap:square;stroke-width:0.8;"/>
     </g>
     <g id="line2d_4">
      <g>
       <use style="stroke:#000000;stroke-width:0.8;" x="231.0256" xlink:href="#mae68dfb59b" y="295.672"/>
      </g>
     </g>
     <g id="text_2">
      <!-- 1000 -->
      <g transform="translate(218.3006 310.270437)scale(0.1 -0.1)">
       <defs>
        <path d="M 794 531 
L 1825 531 
L 1825 4091 
L 703 3866 
L 703 4441 
L 1819 4666 
L 2450 4666 
L 2450 531 
L 3481 531 
L 3481 0 
L 794 0 
L 794 531 
z
" id="DejaVuSans-31" transform="scale(0.015625)"/>
       </defs>
       <use xlink:href="#DejaVuSans-31"/>
       <use x="63.623047" xlink:href="#DejaVuSans-30"/>
       <use x="127.246094" xlink:href="#DejaVuSans-30"/>
       <use x="190.869141" xlink:href="#DejaVuSans-30"/>
      </g>
     </g>
    </g>
    <g id="xtick_3">
     <g id="line2d_5">
      <path clip-path="url(#p6c50d0fb44)" d="M 288 295.672 
L 288 10.8 
" style="fill:none;stroke:#b0b0b0;stroke-linecap:square;stroke-width:0.8;"/>
     </g>
     <g id="line2d_6">
      <g>
       <use style="stroke:#000000;stroke-width:0.8;" x="288" xlink:href="#mae68dfb59b" y="295.672"/>
      </g>
     </g>
     <g id="text_3">
      <!-- 2000 -->
      <g transform="translate(275.275 310.270437)scale(0.1 -0.1)">
       <defs>
        <path d="M 1228 531 
L 3431 531 
L 3431 0 
L 469 0 
L 469 531 
Q 828 903 1448 1529 
Q 2069 2156 2228 2338 
Q 2531 2678 2651 2914 
Q 2772 3150 2772 3378 
Q 2772 3750 2511 3984 
Q 2250 4219 1831 4219 
Q 1534 4219 1204 4116 
Q 875 4013 500 3803 
L 500 4441 
Q 881 4594 1212 4672 
Q 1544 4750 1819 4750 
Q 2544 4750 2975 4387 
Q 3406 4025 3406 3419 
Q 3406 3131 3298 2873 
Q 3191 2616 2906 2266 
Q 2828 2175 2409 1742 
Q 1991 1309 1228 531 
z
" id="DejaVuSans-32" transform="scale(0.015625)"/>
       </defs>
       <use xlink:href="#DejaVuSans-32"/>
       <use x="63.623047" xlink:href="#DejaVuSans-30"/>
       <use x="127.246094" xlink:href="#DejaVuSans-30"/>
       <use x="190.869141" xlink:href="#DejaVuSans-30"/>
      </g>
     </g>
    </g>
    <g id="xtick_4">
     <g id="line2d_7">
      <path clip-path="url(#p6c50d0fb44)" d="M 344.9744 295.672 
L 344.9744 10.8 
" style="fill:none;stroke:#b0b0b0;stroke-linecap:square;stroke-width:0.8;"/>
     </g>
     <g id="line2d_8">
      <g>
       <use style="stroke:#000000;stroke-width:0.8;" x="344.9744" xlink:href="#mae68dfb59b" y="295.672"/>
      </g>
     </g>
     <g id="text_4">
      <!-- 3000 -->
      <g transform="translate(332.2494 310.270437)scale(0.1 -0.1)">
       <defs>
        <path d="M 2597 2516 
Q 3050 2419 3304 2112 
Q 3559 1806 3559 1356 
Q 3559 666 3084 287 
Q 2609 -91 1734 -91 
Q 1441 -91 1130 -33 
Q 819 25 488 141 
L 488 750 
Q 750 597 1062 519 
Q 1375 441 1716 441 
Q 2309 441 2620 675 
Q 2931 909 2931 1356 
Q 2931 1769 2642 2001 
Q 2353 2234 1838 2234 
L 1294 2234 
L 1294 2753 
L 1863 2753 
Q 2328 2753 2575 2939 
Q 2822 3125 2822 3475 
Q 2822 3834 2567 4026 
Q 2313 4219 1838 4219 
Q 1578 4219 1281 4162 
Q 984 4106 628 3988 
L 628 4550 
Q 988 4650 1302 4700 
Q 1616 4750 1894 4750 
Q 2613 4750 3031 4423 
Q 3450 4097 3450 3541 
Q 3450 3153 3228 2886 
Q 3006 2619 2597 2516 
z
" id="DejaVuSans-33" transform="scale(0.015625)"/>
       </defs>
       <use xlink:href="#DejaVuSans-33"/>
       <use x="63.623047" xlink:href="#DejaVuSans-30"/>
       <use x="127.246094" xlink:href="#DejaVuSans-30"/>
       <use x="190.869141" xlink:href="#DejaVuSans-30"/>
      </g>
     </g>
    </g>
    <g id="xtick_5">
     <g id="line2d_9">
      <path clip-path="url(#p6c50d0fb44)" d="M 401.9488 295.672 
L 401.9488 10.8 
" style="fill:none;stroke:#b0b0b0;stroke-linecap:square;stroke-width:0.8;"/>
     </g>
     <g id="line2d_10">
      <g>
       <use style="stroke:#000000;stroke-width:0.8;" x="401.9488" xlink:href="#mae68dfb59b" y="295.672"/>
      </g>
     </g>
     <g id="text_5">
      <!-- 4000 -->
      <g transform="translate(389.2238 310.270437)scale(0.1 -0.1)">
       <defs>
        <path d="M 2419 4116 
L 825 1625 
L 2419 1625 
L 2419 4116 
z
M 2253 4666 
L 3047 4666 
L 3047 1625 
L 3713 1625 
L 3713 1100 
L 3047 1100 
L 3047 0 
L 2419 0 
L 2419 1100 
L 313 1100 
L 313 1709 
L 2253 4666 
z
" id="DejaVuSans-34" transform="scale(0.015625)"/>
       </defs>
       <use xlink:href="#DejaVuSans-34"/>
       <use x="63.623047" xlink:href="#DejaVuSans-30"/>
       <use x="127.246094" xlink:href="#DejaVuSans-30"/>
       <use x="190.869141" xlink:href="#DejaVuSans-30"/>
      </g>
     </g>
    </g>
    <g id="text_6">
     <!-- $x_A$ -->
     <g transform="translate(282.5 323.948562)scale(0.1 -0.1)">
      <defs>
       <path d="M 3841 3500 
L 2234 1784 
L 3219 0 
L 2559 0 
L 1819 1388 
L 531 0 
L -166 0 
L 1556 1844 
L 641 3500 
L 1300 3500 
L 1972 2234 
L 3144 3500 
L 3841 3500 
z
" id="DejaVuSans-Oblique-78" transform="scale(0.015625)"/>
       <path d="M 2356 4666 
L 3072 4666 
L 3938 0 
L 3278 0 
L 3084 1197 
L 984 1197 
L 325 0 
L -341 0 
L 2356 4666 
z
M 2584 4044 
L 1275 1722 
L 2988 1722 
L 2584 4044 
z
" id="DejaVuSans-Oblique-41" transform="scale(0.015625)"/>
      </defs>
      <use transform="translate(0 0.3125)" xlink:href="#DejaVuSans-Oblique-78"/>
      <use transform="translate(59.179688 -16.09375)scale(0.7)" xlink:href="#DejaVuSans-Oblique-41"/>
     </g>
    </g>
   </g>
   <g id="matplotlib.axis_2">
    <g id="ytick_1">
     <g id="line2d_11">
      <path clip-path="url(#p6c50d0fb44)" d="M 145.564 267.1848 
L 430.436 267.1848 
" style="fill:none;stroke:#b0b0b0;stroke-linecap:square;stroke-width:0.8;"/>
     </g>
     <g id="line2d_12">
      <defs>
       <path d="M 0 0 
L -3.5 0 
" id="mfb34f46352" style="stroke:#000000;stroke-width:0.8;"/>
      </defs>
      <g>
       <use style="stroke:#000000;stroke-width:0.8;" x="145.564" xlink:href="#mfb34f46352" y="267.1848"/>
      </g>
     </g>
     <g id="text_7">
      <!-- 0 -->
      <g transform="translate(132.2015 270.984019)scale(0.1 -0.1)">
       <use xlink:href="#DejaVuSans-30"/>
      </g>
     </g>
    </g>
    <g id="ytick_2">
     <g id="line2d_13">
      <path clip-path="url(#p6c50d0fb44)" d="M 145.564 210.2104 
L 430.436 210.2104 
" style="fill:none;stroke:#b0b0b0;stroke-linecap:square;stroke-width:0.8;"/>
     </g>
     <g id="line2d_14">
      <g>
       <use style="stroke:#000000;stroke-width:0.8;" x="145.564" xlink:href="#mfb34f46352" y="210.2104"/>
      </g>
     </g>
     <g id="text_8">
      <!-- 1000 -->
      <g transform="translate(113.114 214.009619)scale(0.1 -0.1)">
       <use xlink:href="#DejaVuSans-31"/>
       <use x="63.623047" xlink:href="#DejaVuSans-30"/>
       <use x="127.246094" xlink:href="#DejaVuSans-30"/>
       <use x="190.869141" xlink:href="#DejaVuSans-30"/>
      </g>
     </g>
    </g>
    <g id="ytick_3">
     <g id="line2d_15">
      <path clip-path="url(#p6c50d0fb44)" d="M 145.564 153.236 
L 430.436 153.236 
" style="fill:none;stroke:#b0b0b0;stroke-linecap:square;stroke-width:0.8;"/>
     </g>
     <g id="line2d_16">
      <g>
       <use style="stroke:#000000;stroke-width:0.8;" x="145.564" xlink:href="#mfb34f46352" y="153.236"/>
      </g>
     </g>
     <g id="text_9">
      <!-- 2000 -->
      <g transform="translate(113.114 157.035219)scale(0.1 -0.1)">
       <use xlink:href="#DejaVuSans-32"/>
       <use x="63.623047" xlink:href="#DejaVuSans-30"/>
       <use x="127.246094" xlink:href="#DejaVuSans-30"/>
       <use x="190.869141" xlink:href="#DejaVuSans-30"/>
      </g>
     </g>
    </g>
    <g id="ytick_4">
     <g id="line2d_17">
      <path clip-path="url(#p6c50d0fb44)" d="M 145.564 96.2616 
L 430.436 96.2616 
" style="fill:none;stroke:#b0b0b0;stroke-linecap:square;stroke-width:0.8;"/>
     </g>
     <g id="line2d_18">
      <g>
       <use style="stroke:#000000;stroke-width:0.8;" x="145.564" xlink:href="#mfb34f46352" y="96.2616"/>
      </g>
     </g>
     <g id="text_10">
      <!-- 3000 -->
      <g transform="translate(113.114 100.060819)scale(0.1 -0.1)">
       <use xlink:href="#DejaVuSans-33"/>
       <use x="63.623047" xlink:href="#DejaVuSans-30"/>
       <use x="127.246094" xlink:href="#DejaVuSans-30"/>
       <use x="190.869141" xlink:href="#DejaVuSans-30"/>
      </g>
     </g>
    </g>
    <g id="ytick_5">
     <g id="line2d_19">
      <path clip-path="url(#p6c50d0fb44)" d="M 145.564 39.2872 
L 430.436 39.2872 
" style="fill:none;stroke:#b0b0b0;stroke-linecap:square;stroke-width:0.8;"/>
     </g>
     <g id="line2d_20">
      <g>
       <use style="stroke:#000000;stroke-width:0.8;" x="145.564" xlink:href="#mfb34f46352" y="39.2872"/>
      </g>
     </g>
     <g id="text_11">
      <!-- 4000 -->
      <g transform="translate(113.114 43.086419)scale(0.1 -0.1)">
       <use xlink:href="#DejaVuSans-34"/>
       <use x="63.623047" xlink:href="#DejaVuSans-30"/>
       <use x="127.246094" xlink:href="#DejaVuSans-30"/>
       <use x="190.869141" xlink:href="#DejaVuSans-30"/>
      </g>
     </g>
    </g>
    <g id="text_12">
     <!-- $y_A$ -->
     <g transform="translate(107.014 158.736)rotate(-90)scale(0.1 -0.1)">
      <defs>
       <path d="M 1588 -325 
Q 1188 -997 936 -1164 
Q 684 -1331 294 -1331 
L -159 -1331 
L -63 -850 
L 269 -850 
Q 509 -850 678 -719 
Q 847 -588 1056 -206 
L 1234 128 
L 459 3500 
L 1069 3500 
L 1650 819 
L 3256 3500 
L 3859 3500 
L 1588 -325 
z
" id="DejaVuSans-Oblique-79" transform="scale(0.015625)"/>
      </defs>
      <use transform="translate(0 0.3125)" xlink:href="#DejaVuSans-Oblique-79"/>
      <use transform="translate(59.179688 -16.09375)scale(0.7)" xlink:href="#DejaVuSans-Oblique-41"/>
     </g>
    </g>
   </g>
   <g id="line2d_21">
    <path clip-path="url(#p6c50d0fb44)" d="M 174.0512 267.1848 
L 284.353638 267.1848 
L 284.353638 205.196653 
L 174.0512 205.196653 
L 174.0512 267.1848 
" style="fill:none;stroke:#000000;stroke-linecap:square;stroke-width:1.5;"/>
   </g>
   <g id="line2d_22">
    <path clip-path="url(#p6c50d0fb44)" d="M 350.519197 23.862469 
L 354.386511 134.21269 
L 416.381672 132.028537 
L 412.546006 21.642825 
L 350.519197 23.862469 
" style="fill:none;stroke:#000000;stroke-linecap:square;stroke-width:1.5;"/>
   </g>
   <g id="patch_3">
    <path d="M 145.564 295.672 
L 145.564 10.8 
" style="fill:none;stroke:#000000;stroke-linecap:square;stroke-linejoin:miter;stroke-width:0.8;"/>
   </g>
   <g id="patch_4">
    <path d="M 430.436 295.672 
L 430.436 10.8 
" style="fill:none;stroke:#000000;stroke-linecap:square;stroke-linejoin:miter;stroke-width:0.8;"/>
   </g>
   <g id="patch_5">
    <path d="M 145.564 295.672 
L 430.436 295.672 
" style="fill:none;stroke:#000000;stroke-linecap:square;stroke-linejoin:miter;stroke-width:0.8;"/>
   </g>
   <g id="patch_6">
    <path d="M 145.564 10.8 
L 430.436 10.8 
" style="fill:none;stroke:#000000;stroke-linecap:square;stroke-linejoin:miter;stroke-width:0.8;"/>
   </g>
   <g id="PathCollection_6">
    <defs>
     <path d="M -5 5 
L 5 -5 
M -5 -5 
L 5 5 
" id="m371d44084c" style="stroke:#ff00ff;stroke-width:1.5;"/>
    </defs>
    <g clip-path="url(#p6c50d0fb44)">
     <use style="fill:#ff00ff;stroke:#ff00ff;stroke-width:1.5;" x="229.173932" xlink:href="#m371d44084c" y="236.219214"/>
    </g>
   </g>
   <g id="PathCollection_7">
    <defs>
     <path d="M -5 5 
L 5 -5 
M -5 -5 
L 5 5 
" id="mb77c5808ac" style="stroke:#0000ff;stroke-width:1.5;"/>
    </defs>
    <g clip-path="url(#p6c50d0fb44)">
     <use style="fill:#0000ff;stroke:#0000ff;stroke-width:1.5;" x="383.424543" xlink:href="#mb77c5808ac" y="77.923924"/>
    </g>
   </g>
   <g id="PathCollection_8">
    <defs>
     <path d="M -5 5 
L 5 -5 
M -5 -5 
L 5 5 
" id="m668b5ab2c6" style="stroke:#008000;stroke-width:1.5;"/>
    </defs>
    <g clip-path="url(#p6c50d0fb44)">
     <use style="fill:#008000;stroke:#008000;stroke-width:1.5;" x="388.222136" xlink:href="#m668b5ab2c6" y="236.971259"/>
    </g>
   </g>
   <g id="legend_1">
    <g id="patch_7">
     <path d="M 152.564 62.834375 
L 283.764 62.834375 
Q 285.764 62.834375 285.764 60.834375 
L 285.764 17.8 
Q 285.764 15.8 283.764 15.8 
L 152.564 15.8 
Q 150.564 15.8 150.564 17.8 
L 150.564 60.834375 
Q 150.564 62.834375 152.564 62.834375 
z
" style="fill:#ffffff;opacity:0.8;stroke:#cccccc;stroke-linejoin:miter;"/>
    </g>
    <g id="PathCollection_9">
     <g>
      <use style="fill:#ff00ff;stroke:#ff00ff;stroke-width:1.5;" x="164.564" xlink:href="#m371d44084c" y="24.773438"/>
     </g>
    </g>
    <g id="text_13">
     <!-- $A$ -->
     <g transform="translate(182.564 27.398438)scale(0.1 -0.1)">
      <use transform="translate(0 0.09375)" xlink:href="#DejaVuSans-Oblique-41"/>
     </g>
    </g>
    <g id="PathCollection_10">
     <g>
      <use style="fill:#0000ff;stroke:#0000ff;stroke-width:1.5;" x="164.564" xlink:href="#mb77c5808ac" y="39.451563"/>
     </g>
    </g>
    <g id="text_14">
     <!-- $B$ -->
     <g transform="translate(182.564 42.076563)scale(0.1 -0.1)">
      <defs>
       <path d="M 1081 4666 
L 2694 4666 
Q 3350 4666 3675 4422 
Q 4000 4178 4000 3688 
Q 4000 3238 3720 2911 
Q 3441 2584 2988 2516 
Q 3375 2428 3569 2181 
Q 3763 1934 3763 1522 
Q 3763 819 3242 409 
Q 2722 0 1819 0 
L 172 0 
L 1081 4666 
z
M 1234 2228 
L 903 519 
L 1919 519 
Q 2491 519 2800 781 
Q 3109 1044 3109 1522 
Q 3109 1891 2904 2059 
Q 2700 2228 2247 2228 
L 1234 2228 
z
M 1606 4147 
L 1331 2741 
L 2272 2741 
Q 2775 2741 3058 2959 
Q 3341 3178 3341 3566 
Q 3341 3869 3150 4008 
Q 2959 4147 2541 4147 
L 1606 4147 
z
" id="DejaVuSans-Oblique-42" transform="scale(0.015625)"/>
      </defs>
      <use transform="translate(0 0.09375)" xlink:href="#DejaVuSans-Oblique-42"/>
     </g>
    </g>
    <g id="PathCollection_11">
     <g>
      <use style="fill:#008000;stroke:#008000;stroke-width:1.5;" x="164.564" xlink:href="#m668b5ab2c6" y="54.129687"/>
     </g>
    </g>
    <g id="text_15">
     <!-- $R_0, f(R_0) = 3.3e-09$ -->
     <g transform="translate(182.564 56.754687)scale(0.1 -0.1)">
      <defs>
       <path d="M 1613 4147 
L 1294 2491 
L 2106 2491 
Q 2584 2491 2879 2755 
Q 3175 3019 3175 3444 
Q 3175 3784 2976 3965 
Q 2778 4147 2406 4147 
L 1613 4147 
z
M 2772 2241 
Q 2972 2194 3105 2009 
Q 3238 1825 3413 1275 
L 3809 0 
L 3144 0 
L 2778 1197 
Q 2638 1659 2453 1815 
Q 2269 1972 1888 1972 
L 1191 1972 
L 806 0 
L 172 0 
L 1081 4666 
L 2503 4666 
Q 3150 4666 3495 4373 
Q 3841 4081 3841 3531 
Q 3841 3044 3547 2687 
Q 3253 2331 2772 2241 
z
" id="DejaVuSans-Oblique-52" transform="scale(0.015625)"/>
       <path d="M 750 794 
L 1409 794 
L 1409 256 
L 897 -744 
L 494 -744 
L 750 256 
L 750 794 
z
" id="DejaVuSans-2c" transform="scale(0.015625)"/>
       <path d="M 3059 4863 
L 2969 4384 
L 2419 4384 
Q 2106 4384 1964 4261 
Q 1822 4138 1753 3809 
L 1691 3500 
L 2638 3500 
L 2553 3053 
L 1606 3053 
L 1013 0 
L 434 0 
L 1031 3053 
L 481 3053 
L 563 3500 
L 1113 3500 
L 1159 3744 
Q 1278 4363 1576 4613 
Q 1875 4863 2516 4863 
L 3059 4863 
z
" id="DejaVuSans-Oblique-66" transform="scale(0.015625)"/>
       <path d="M 1984 4856 
Q 1566 4138 1362 3434 
Q 1159 2731 1159 2009 
Q 1159 1288 1364 580 
Q 1569 -128 1984 -844 
L 1484 -844 
Q 1016 -109 783 600 
Q 550 1309 550 2009 
Q 550 2706 781 3412 
Q 1013 4119 1484 4856 
L 1984 4856 
z
" id="DejaVuSans-28" transform="scale(0.015625)"/>
       <path d="M 513 4856 
L 1013 4856 
Q 1481 4119 1714 3412 
Q 1947 2706 1947 2009 
Q 1947 1309 1714 600 
Q 1481 -109 1013 -844 
L 513 -844 
Q 928 -128 1133 580 
Q 1338 1288 1338 2009 
Q 1338 2731 1133 3434 
Q 928 4138 513 4856 
z
" id="DejaVuSans-29" transform="scale(0.015625)"/>
       <path d="M 678 2906 
L 4684 2906 
L 4684 2381 
L 678 2381 
L 678 2906 
z
M 678 1631 
L 4684 1631 
L 4684 1100 
L 678 1100 
L 678 1631 
z
" id="DejaVuSans-3d" transform="scale(0.015625)"/>
       <path d="M 684 794 
L 1344 794 
L 1344 0 
L 684 0 
L 684 794 
z
" id="DejaVuSans-2e" transform="scale(0.015625)"/>
       <path d="M 3078 2063 
Q 3088 2113 3092 2166 
Q 3097 2219 3097 2272 
Q 3097 2653 2873 2875 
Q 2650 3097 2266 3097 
Q 1838 3097 1509 2826 
Q 1181 2556 1013 2059 
L 3078 2063 
z
M 3578 1613 
L 903 1613 
Q 884 1494 878 1425 
Q 872 1356 872 1306 
Q 872 872 1139 634 
Q 1406 397 1894 397 
Q 2269 397 2603 481 
Q 2938 566 3225 728 
L 3116 159 
Q 2806 34 2476 -28 
Q 2147 -91 1806 -91 
Q 1078 -91 686 257 
Q 294 606 294 1247 
Q 294 1794 489 2264 
Q 684 2734 1063 3103 
Q 1306 3334 1642 3459 
Q 1978 3584 2356 3584 
Q 2950 3584 3301 3228 
Q 3653 2872 3653 2272 
Q 3653 2128 3634 1964 
Q 3616 1800 3578 1613 
z
" id="DejaVuSans-Oblique-65" transform="scale(0.015625)"/>
       <path d="M 678 2272 
L 4684 2272 
L 4684 1741 
L 678 1741 
L 678 2272 
z
" id="DejaVuSans-2212" transform="scale(0.015625)"/>
       <path d="M 703 97 
L 703 672 
Q 941 559 1184 500 
Q 1428 441 1663 441 
Q 2288 441 2617 861 
Q 2947 1281 2994 2138 
Q 2813 1869 2534 1725 
Q 2256 1581 1919 1581 
Q 1219 1581 811 2004 
Q 403 2428 403 3163 
Q 403 3881 828 4315 
Q 1253 4750 1959 4750 
Q 2769 4750 3195 4129 
Q 3622 3509 3622 2328 
Q 3622 1225 3098 567 
Q 2575 -91 1691 -91 
Q 1453 -91 1209 -44 
Q 966 3 703 97 
z
M 1959 2075 
Q 2384 2075 2632 2365 
Q 2881 2656 2881 3163 
Q 2881 3666 2632 3958 
Q 2384 4250 1959 4250 
Q 1534 4250 1286 3958 
Q 1038 3666 1038 3163 
Q 1038 2656 1286 2365 
Q 1534 2075 1959 2075 
z
" id="DejaVuSans-39" transform="scale(0.015625)"/>
      </defs>
      <use transform="translate(0 0.015625)" xlink:href="#DejaVuSans-Oblique-52"/>
      <use transform="translate(69.482422 -16.390625)scale(0.7)" xlink:href="#DejaVuSans-30"/>
      <use transform="translate(116.75293 0.015625)" xlink:href="#DejaVuSans-2c"/>
      <use transform="translate(168.022461 0.015625)" xlink:href="#DejaVuSans-Oblique-66"/>
      <use transform="translate(203.227539 0.015625)" xlink:href="#DejaVuSans-28"/>
      <use transform="translate(242.241211 0.015625)" xlink:href="#DejaVuSans-Oblique-52"/>
      <use transform="translate(311.723633 -16.390625)scale(0.7)" xlink:href="#DejaVuSans-30"/>
      <use transform="translate(358.994141 0.015625)" xlink:href="#DejaVuSans-29"/>
      <use transform="translate(417.490234 0.015625)" xlink:href="#DejaVuSans-3d"/>
      <use transform="translate(520.761719 0.015625)" xlink:href="#DejaVuSans-33"/>
      <use transform="translate(584.384766 0.015625)" xlink:href="#DejaVuSans-2e"/>
      <use transform="translate(616.171875 0.015625)" xlink:href="#DejaVuSans-33"/>
      <use transform="translate(679.794922 0.015625)" xlink:href="#DejaVuSans-Oblique-65"/>
      <use transform="translate(760.800781 0.015625)" xlink:href="#DejaVuSans-2212"/>
      <use transform="translate(864.072266 0.015625)" xlink:href="#DejaVuSans-30"/>
      <use transform="translate(927.695312 0.015625)" xlink:href="#DejaVuSans-39"/>
     </g>
    </g>
   </g>
  </g>
  <g id="axes_2">
   <g id="patch_8">
    <path d="M 121.68 373.348 
L 454.32 373.348 
L 454.32 356.716 
L 121.68 356.716 
z
" style="fill:#ffffff;"/>
   </g>
   <g id="patch_9">
    <path clip-path="url(#pfeddc89785)" d="M 121.68 373.348 
L 188.208 373.348 
L 387.792 373.348 
L 454.32 373.348 
L 454.32 356.716 
L 387.792 356.716 
L 188.208 356.716 
L 121.68 356.716 
L 121.68 356.716 
z
" style="fill:#ffffff;stroke:#ffffff;stroke-linejoin:miter;stroke-width:0.01;"/>
   </g>
   <g id="QuadMesh_1">
    <path clip-path="url(#pfeddc89785)" d="M 121.68 373.348 
L 121.68 356.716 
L 188.208 356.716 
L 188.208 373.348 
L 121.68 373.348 
" style="fill:#045382;"/>
    <path clip-path="url(#pfeddc89785)" d="M 188.208 373.348 
L 188.208 356.716 
L 254.736 356.716 
L 254.736 373.348 
L 188.208 373.348 
" style="fill:#187cb6;"/>
    <path clip-path="url(#pfeddc89785)" d="M 254.736 373.348 
L 254.736 356.716 
L 321.264 356.716 
L 321.264 373.348 
L 254.736 373.348 
" style="fill:#75a9cf;"/>
    <path clip-path="url(#pfeddc89785)" d="M 321.264 373.348 
L 321.264 356.716 
L 387.792 356.716 
L 387.792 373.348 
L 321.264 373.348 
" style="fill:#c0c9e2;"/>
    <path clip-path="url(#pfeddc89785)" d="M 387.792 373.348 
L 387.792 356.716 
L 454.32 356.716 
L 454.32 373.348 
L 387.792 373.348 
" style="fill:#f0eaf4;"/>
   </g>
   <g id="matplotlib.axis_3">
    <g id="xtick_6">
     <g id="line2d_23">
      <g>
       <use style="stroke:#000000;stroke-width:0.8;" x="121.68" xlink:href="#mae68dfb59b" y="373.348"/>
      </g>
     </g>
     <g id="text_16">
      <!-- $\mathdefault{10^{3}}$ -->
      <g transform="translate(112.88 387.946438)scale(0.1 -0.1)">
       <use transform="translate(0 0.765625)" xlink:href="#DejaVuSans-31"/>
       <use transform="translate(63.623047 0.765625)" xlink:href="#DejaVuSans-30"/>
       <use transform="translate(128.203125 39.046875)scale(0.7)" xlink:href="#DejaVuSans-33"/>
      </g>
     </g>
    </g>
    <g id="xtick_7">
     <g id="line2d_24">
      <g>
       <use style="stroke:#000000;stroke-width:0.8;" x="188.208" xlink:href="#mae68dfb59b" y="373.348"/>
      </g>
     </g>
     <g id="text_17">
      <!-- $\mathdefault{10^{4}}$ -->
      <g transform="translate(179.408 387.946438)scale(0.1 -0.1)">
       <use transform="translate(0 0.684375)" xlink:href="#DejaVuSans-31"/>
       <use transform="translate(63.623047 0.684375)" xlink:href="#DejaVuSans-30"/>
       <use transform="translate(128.203125 38.965625)scale(0.7)" xlink:href="#DejaVuSans-34"/>
      </g>
     </g>
    </g>
    <g id="xtick_8">
     <g id="line2d_25">
      <g>
       <use style="stroke:#000000;stroke-width:0.8;" x="254.736" xlink:href="#mae68dfb59b" y="373.348"/>
      </g>
     </g>
     <g id="text_18">
      <!-- $\mathdefault{10^{5}}$ -->
      <g transform="translate(245.936 387.946438)scale(0.1 -0.1)">
       <defs>
        <path d="M 691 4666 
L 3169 4666 
L 3169 4134 
L 1269 4134 
L 1269 2991 
Q 1406 3038 1543 3061 
Q 1681 3084 1819 3084 
Q 2600 3084 3056 2656 
Q 3513 2228 3513 1497 
Q 3513 744 3044 326 
Q 2575 -91 1722 -91 
Q 1428 -91 1123 -41 
Q 819 9 494 109 
L 494 744 
Q 775 591 1075 516 
Q 1375 441 1709 441 
Q 2250 441 2565 725 
Q 2881 1009 2881 1497 
Q 2881 1984 2565 2268 
Q 2250 2553 1709 2553 
Q 1456 2553 1204 2497 
Q 953 2441 691 2322 
L 691 4666 
z
" id="DejaVuSans-35" transform="scale(0.015625)"/>
       </defs>
       <use transform="translate(0 0.684375)" xlink:href="#DejaVuSans-31"/>
       <use transform="translate(63.623047 0.684375)" xlink:href="#DejaVuSans-30"/>
       <use transform="translate(128.203125 38.965625)scale(0.7)" xlink:href="#DejaVuSans-35"/>
      </g>
     </g>
    </g>
    <g id="xtick_9">
     <g id="line2d_26">
      <g>
       <use style="stroke:#000000;stroke-width:0.8;" x="321.264" xlink:href="#mae68dfb59b" y="373.348"/>
      </g>
     </g>
     <g id="text_19">
      <!-- $\mathdefault{10^{6}}$ -->
      <g transform="translate(312.464 387.946438)scale(0.1 -0.1)">
       <defs>
        <path d="M 2113 2584 
Q 1688 2584 1439 2293 
Q 1191 2003 1191 1497 
Q 1191 994 1439 701 
Q 1688 409 2113 409 
Q 2538 409 2786 701 
Q 3034 994 3034 1497 
Q 3034 2003 2786 2293 
Q 2538 2584 2113 2584 
z
M 3366 4563 
L 3366 3988 
Q 3128 4100 2886 4159 
Q 2644 4219 2406 4219 
Q 1781 4219 1451 3797 
Q 1122 3375 1075 2522 
Q 1259 2794 1537 2939 
Q 1816 3084 2150 3084 
Q 2853 3084 3261 2657 
Q 3669 2231 3669 1497 
Q 3669 778 3244 343 
Q 2819 -91 2113 -91 
Q 1303 -91 875 529 
Q 447 1150 447 2328 
Q 447 3434 972 4092 
Q 1497 4750 2381 4750 
Q 2619 4750 2861 4703 
Q 3103 4656 3366 4563 
z
" id="DejaVuSans-36" transform="scale(0.015625)"/>
       </defs>
       <use transform="translate(0 0.765625)" xlink:href="#DejaVuSans-31"/>
       <use transform="translate(63.623047 0.765625)" xlink:href="#DejaVuSans-30"/>
       <use transform="translate(128.203125 39.046875)scale(0.7)" xlink:href="#DejaVuSans-36"/>
      </g>
     </g>
    </g>
    <g id="xtick_10">
     <g id="line2d_27">
      <g>
       <use style="stroke:#000000;stroke-width:0.8;" x="387.792" xlink:href="#mae68dfb59b" y="373.348"/>
      </g>
     </g>
     <g id="text_20">
      <!-- $\mathdefault{10^{7}}$ -->
      <g transform="translate(378.992 387.946438)scale(0.1 -0.1)">
       <defs>
        <path d="M 525 4666 
L 3525 4666 
L 3525 4397 
L 1831 0 
L 1172 0 
L 2766 4134 
L 525 4134 
L 525 4666 
z
" id="DejaVuSans-37" transform="scale(0.015625)"/>
       </defs>
       <use transform="translate(0 0.684375)" xlink:href="#DejaVuSans-31"/>
       <use transform="translate(63.623047 0.684375)" xlink:href="#DejaVuSans-30"/>
       <use transform="translate(128.203125 38.965625)scale(0.7)" xlink:href="#DejaVuSans-37"/>
      </g>
     </g>
    </g>
    <g id="xtick_11">
     <g id="line2d_28">
      <g>
       <use style="stroke:#000000;stroke-width:0.8;" x="454.32" xlink:href="#mae68dfb59b" y="373.348"/>
      </g>
     </g>
     <g id="text_21">
      <!-- $\mathdefault{10^{8}}$ -->
      <g transform="translate(445.52 387.946438)scale(0.1 -0.1)">
       <defs>
        <path d="M 2034 2216 
Q 1584 2216 1326 1975 
Q 1069 1734 1069 1313 
Q 1069 891 1326 650 
Q 1584 409 2034 409 
Q 2484 409 2743 651 
Q 3003 894 3003 1313 
Q 3003 1734 2745 1975 
Q 2488 2216 2034 2216 
z
M 1403 2484 
Q 997 2584 770 2862 
Q 544 3141 544 3541 
Q 544 4100 942 4425 
Q 1341 4750 2034 4750 
Q 2731 4750 3128 4425 
Q 3525 4100 3525 3541 
Q 3525 3141 3298 2862 
Q 3072 2584 2669 2484 
Q 3125 2378 3379 2068 
Q 3634 1759 3634 1313 
Q 3634 634 3220 271 
Q 2806 -91 2034 -91 
Q 1263 -91 848 271 
Q 434 634 434 1313 
Q 434 1759 690 2068 
Q 947 2378 1403 2484 
z
M 1172 3481 
Q 1172 3119 1398 2916 
Q 1625 2713 2034 2713 
Q 2441 2713 2670 2916 
Q 2900 3119 2900 3481 
Q 2900 3844 2670 4047 
Q 2441 4250 2034 4250 
Q 1625 4250 1398 4047 
Q 1172 3844 1172 3481 
z
" id="DejaVuSans-38" transform="scale(0.015625)"/>
       </defs>
       <use transform="translate(0 0.765625)" xlink:href="#DejaVuSans-31"/>
       <use transform="translate(63.623047 0.765625)" xlink:href="#DejaVuSans-30"/>
       <use transform="translate(128.203125 39.046875)scale(0.7)" xlink:href="#DejaVuSans-38"/>
      </g>
     </g>
    </g>
    <g id="xtick_12">
     <g id="line2d_29">
      <defs>
       <path d="M 0 0 
L 0 2 
" id="m0d57ae7b71" style="stroke:#000000;stroke-width:0.6;"/>
      </defs>
      <g>
       <use style="stroke:#000000;stroke-width:0.6;" x="141.706924" xlink:href="#m0d57ae7b71" y="373.348"/>
      </g>
     </g>
    </g>
    <g id="xtick_13">
     <g id="line2d_30">
      <g>
       <use style="stroke:#000000;stroke-width:0.6;" x="153.421923" xlink:href="#m0d57ae7b71" y="373.348"/>
      </g>
     </g>
    </g>
    <g id="xtick_14">
     <g id="line2d_31">
      <g>
       <use style="stroke:#000000;stroke-width:0.6;" x="161.733847" xlink:href="#m0d57ae7b71" y="373.348"/>
      </g>
     </g>
    </g>
    <g id="xtick_15">
     <g id="line2d_32">
      <g>
       <use style="stroke:#000000;stroke-width:0.6;" x="168.181076" xlink:href="#m0d57ae7b71" y="373.348"/>
      </g>
     </g>
    </g>
    <g id="xtick_16">
     <g id="line2d_33">
      <g>
       <use style="stroke:#000000;stroke-width:0.6;" x="173.448846" xlink:href="#m0d57ae7b71" y="373.348"/>
      </g>
     </g>
    </g>
    <g id="xtick_17">
     <g id="line2d_34">
      <g>
       <use style="stroke:#000000;stroke-width:0.6;" x="177.902682" xlink:href="#m0d57ae7b71" y="373.348"/>
      </g>
     </g>
    </g>
    <g id="xtick_18">
     <g id="line2d_35">
      <g>
       <use style="stroke:#000000;stroke-width:0.6;" x="181.760771" xlink:href="#m0d57ae7b71" y="373.348"/>
      </g>
     </g>
    </g>
    <g id="xtick_19">
     <g id="line2d_36">
      <g>
       <use style="stroke:#000000;stroke-width:0.6;" x="185.163846" xlink:href="#m0d57ae7b71" y="373.348"/>
      </g>
     </g>
    </g>
    <g id="xtick_20">
     <g id="line2d_37">
      <g>
       <use style="stroke:#000000;stroke-width:0.6;" x="208.234924" xlink:href="#m0d57ae7b71" y="373.348"/>
      </g>
     </g>
    </g>
    <g id="xtick_21">
     <g id="line2d_38">
      <g>
       <use style="stroke:#000000;stroke-width:0.6;" x="219.949923" xlink:href="#m0d57ae7b71" y="373.348"/>
      </g>
     </g>
    </g>
    <g id="xtick_22">
     <g id="line2d_39">
      <g>
       <use style="stroke:#000000;stroke-width:0.6;" x="228.261847" xlink:href="#m0d57ae7b71" y="373.348"/>
      </g>
     </g>
    </g>
    <g id="xtick_23">
     <g id="line2d_40">
      <g>
       <use style="stroke:#000000;stroke-width:0.6;" x="234.709076" xlink:href="#m0d57ae7b71" y="373.348"/>
      </g>
     </g>
    </g>
    <g id="xtick_24">
     <g id="line2d_41">
      <g>
       <use style="stroke:#000000;stroke-width:0.6;" x="239.976846" xlink:href="#m0d57ae7b71" y="373.348"/>
      </g>
     </g>
    </g>
    <g id="xtick_25">
     <g id="line2d_42">
      <g>
       <use style="stroke:#000000;stroke-width:0.6;" x="244.430682" xlink:href="#m0d57ae7b71" y="373.348"/>
      </g>
     </g>
    </g>
    <g id="xtick_26">
     <g id="line2d_43">
      <g>
       <use style="stroke:#000000;stroke-width:0.6;" x="248.288771" xlink:href="#m0d57ae7b71" y="373.348"/>
      </g>
     </g>
    </g>
    <g id="xtick_27">
     <g id="line2d_44">
      <g>
       <use style="stroke:#000000;stroke-width:0.6;" x="251.691846" xlink:href="#m0d57ae7b71" y="373.348"/>
      </g>
     </g>
    </g>
    <g id="xtick_28">
     <g id="line2d_45">
      <g>
       <use style="stroke:#000000;stroke-width:0.6;" x="274.762924" xlink:href="#m0d57ae7b71" y="373.348"/>
      </g>
     </g>
    </g>
    <g id="xtick_29">
     <g id="line2d_46">
      <g>
       <use style="stroke:#000000;stroke-width:0.6;" x="286.477923" xlink:href="#m0d57ae7b71" y="373.348"/>
      </g>
     </g>
    </g>
    <g id="xtick_30">
     <g id="line2d_47">
      <g>
       <use style="stroke:#000000;stroke-width:0.6;" x="294.789847" xlink:href="#m0d57ae7b71" y="373.348"/>
      </g>
     </g>
    </g>
    <g id="xtick_31">
     <g id="line2d_48">
      <g>
       <use style="stroke:#000000;stroke-width:0.6;" x="301.237076" xlink:href="#m0d57ae7b71" y="373.348"/>
      </g>
     </g>
    </g>
    <g id="xtick_32">
     <g id="line2d_49">
      <g>
       <use style="stroke:#000000;stroke-width:0.6;" x="306.504846" xlink:href="#m0d57ae7b71" y="373.348"/>
      </g>
     </g>
    </g>
    <g id="xtick_33">
     <g id="line2d_50">
      <g>
       <use style="stroke:#000000;stroke-width:0.6;" x="310.958682" xlink:href="#m0d57ae7b71" y="373.348"/>
      </g>
     </g>
    </g>
    <g id="xtick_34">
     <g id="line2d_51">
      <g>
       <use style="stroke:#000000;stroke-width:0.6;" x="314.816771" xlink:href="#m0d57ae7b71" y="373.348"/>
      </g>
     </g>
    </g>
    <g id="xtick_35">
     <g id="line2d_52">
      <g>
       <use style="stroke:#000000;stroke-width:0.6;" x="318.219846" xlink:href="#m0d57ae7b71" y="373.348"/>
      </g>
     </g>
    </g>
    <g id="xtick_36">
     <g id="line2d_53">
      <g>
       <use style="stroke:#000000;stroke-width:0.6;" x="341.290924" xlink:href="#m0d57ae7b71" y="373.348"/>
      </g>
     </g>
    </g>
    <g id="xtick_37">
     <g id="line2d_54">
      <g>
       <use style="stroke:#000000;stroke-width:0.6;" x="353.005923" xlink:href="#m0d57ae7b71" y="373.348"/>
      </g>
     </g>
    </g>
    <g id="xtick_38">
     <g id="line2d_55">
      <g>
       <use style="stroke:#000000;stroke-width:0.6;" x="361.317847" xlink:href="#m0d57ae7b71" y="373.348"/>
      </g>
     </g>
    </g>
    <g id="xtick_39">
     <g id="line2d_56">
      <g>
       <use style="stroke:#000000;stroke-width:0.6;" x="367.765076" xlink:href="#m0d57ae7b71" y="373.348"/>
      </g>
     </g>
    </g>
    <g id="xtick_40">
     <g id="line2d_57">
      <g>
       <use style="stroke:#000000;stroke-width:0.6;" x="373.032846" xlink:href="#m0d57ae7b71" y="373.348"/>
      </g>
     </g>
    </g>
    <g id="xtick_41">
     <g id="line2d_58">
      <g>
       <use style="stroke:#000000;stroke-width:0.6;" x="377.486682" xlink:href="#m0d57ae7b71" y="373.348"/>
      </g>
     </g>
    </g>
    <g id="xtick_42">
     <g id="line2d_59">
      <g>
       <use style="stroke:#000000;stroke-width:0.6;" x="381.344771" xlink:href="#m0d57ae7b71" y="373.348"/>
      </g>
     </g>
    </g>
    <g id="xtick_43">
     <g id="line2d_60">
      <g>
       <use style="stroke:#000000;stroke-width:0.6;" x="384.747846" xlink:href="#m0d57ae7b71" y="373.348"/>
      </g>
     </g>
    </g>
    <g id="xtick_44">
     <g id="line2d_61">
      <g>
       <use style="stroke:#000000;stroke-width:0.6;" x="407.818924" xlink:href="#m0d57ae7b71" y="373.348"/>
      </g>
     </g>
    </g>
    <g id="xtick_45">
     <g id="line2d_62">
      <g>
       <use style="stroke:#000000;stroke-width:0.6;" x="419.533923" xlink:href="#m0d57ae7b71" y="373.348"/>
      </g>
     </g>
    </g>
    <g id="xtick_46">
     <g id="line2d_63">
      <g>
       <use style="stroke:#000000;stroke-width:0.6;" x="427.845847" xlink:href="#m0d57ae7b71" y="373.348"/>
      </g>
     </g>
    </g>
    <g id="xtick_47">
     <g id="line2d_64">
      <g>
       <use style="stroke:#000000;stroke-width:0.6;" x="434.293076" xlink:href="#m0d57ae7b71" y="373.348"/>
      </g>
     </g>
    </g>
    <g id="xtick_48">
     <g id="line2d_65">
      <g>
       <use style="stroke:#000000;stroke-width:0.6;" x="439.560846" xlink:href="#m0d57ae7b71" y="373.348"/>
      </g>
     </g>
    </g>
    <g id="xtick_49">
     <g id="line2d_66">
      <g>
       <use style="stroke:#000000;stroke-width:0.6;" x="444.014682" xlink:href="#m0d57ae7b71" y="373.348"/>
      </g>
     </g>
    </g>
    <g id="xtick_50">
     <g id="line2d_67">
      <g>
       <use style="stroke:#000000;stroke-width:0.6;" x="447.872771" xlink:href="#m0d57ae7b71" y="373.348"/>
      </g>
     </g>
    </g>
    <g id="xtick_51">
     <g id="line2d_68">
      <g>
       <use style="stroke:#000000;stroke-width:0.6;" x="451.275846" xlink:href="#m0d57ae7b71" y="373.348"/>
      </g>
     </g>
    </g>
    <g id="text_22">
     <!-- $f(x_A, y_A) = (x_A - x_B)^2 + (y_A - y_B)^2$ -->
     <g transform="translate(209.6 403.126125)scale(0.1 -0.1)">
      <defs>
       <path d="M 2944 4013 
L 2944 2272 
L 4684 2272 
L 4684 1741 
L 2944 1741 
L 2944 0 
L 2419 0 
L 2419 1741 
L 678 1741 
L 678 2272 
L 2419 2272 
L 2419 4013 
L 2944 4013 
z
" id="DejaVuSans-2b" transform="scale(0.015625)"/>
      </defs>
      <use transform="translate(0 0.765625)" xlink:href="#DejaVuSans-Oblique-66"/>
      <use transform="translate(35.205078 0.765625)" xlink:href="#DejaVuSans-28"/>
      <use transform="translate(74.21875 0.765625)" xlink:href="#DejaVuSans-Oblique-78"/>
      <use transform="translate(133.398438 -15.640625)scale(0.7)" xlink:href="#DejaVuSans-Oblique-41"/>
      <use transform="translate(184.018555 0.765625)" xlink:href="#DejaVuSans-2c"/>
      <use transform="translate(235.288086 0.765625)" xlink:href="#DejaVuSans-Oblique-79"/>
      <use transform="translate(294.467773 -15.640625)scale(0.7)" xlink:href="#DejaVuSans-Oblique-41"/>
      <use transform="translate(345.087891 0.765625)" xlink:href="#DejaVuSans-29"/>
      <use transform="translate(403.583984 0.765625)" xlink:href="#DejaVuSans-3d"/>
      <use transform="translate(506.855469 0.765625)" xlink:href="#DejaVuSans-28"/>
      <use transform="translate(545.869141 0.765625)" xlink:href="#DejaVuSans-Oblique-78"/>
      <use transform="translate(605.048828 -15.640625)scale(0.7)" xlink:href="#DejaVuSans-Oblique-41"/>
      <use transform="translate(675.151367 0.765625)" xlink:href="#DejaVuSans-2212"/>
      <use transform="translate(778.422852 0.765625)" xlink:href="#DejaVuSans-Oblique-78"/>
      <use transform="translate(837.602539 -15.640625)scale(0.7)" xlink:href="#DejaVuSans-Oblique-42"/>
      <use transform="translate(888.359375 0.765625)" xlink:href="#DejaVuSans-29"/>
      <use transform="translate(928.330078 39.046875)scale(0.7)" xlink:href="#DejaVuSans-32"/>
      <use transform="translate(995.083008 0.765625)" xlink:href="#DejaVuSans-2b"/>
      <use transform="translate(1098.354492 0.765625)" xlink:href="#DejaVuSans-28"/>
      <use transform="translate(1137.368164 0.765625)" xlink:href="#DejaVuSans-Oblique-79"/>
      <use transform="translate(1196.547852 -15.640625)scale(0.7)" xlink:href="#DejaVuSans-Oblique-41"/>
      <use transform="translate(1266.650391 0.765625)" xlink:href="#DejaVuSans-2212"/>
      <use transform="translate(1369.921875 0.765625)" xlink:href="#DejaVuSans-Oblique-79"/>
      <use transform="translate(1429.101562 -15.640625)scale(0.7)" xlink:href="#DejaVuSans-Oblique-42"/>
      <use transform="translate(1479.858398 0.765625)" xlink:href="#DejaVuSans-29"/>
      <use transform="translate(1519.829102 39.046875)scale(0.7)" xlink:href="#DejaVuSans-32"/>
     </g>
    </g>
   </g>
   <g id="matplotlib.axis_4"/>
   <g id="LineCollection_1"/>
   <g id="patch_10">
    <path d="M 121.68 373.348 
L 188.208 373.348 
L 387.792 373.348 
L 454.32 373.348 
L 454.32 356.716 
L 387.792 356.716 
L 188.208 356.716 
L 121.68 356.716 
z
" style="fill:none;stroke:#000000;stroke-linecap:square;stroke-linejoin:miter;stroke-width:0.8;"/>
   </g>
  </g>
 </g>
 <defs>
  <clipPath id="p6c50d0fb44">
   <rect height="284.872" width="284.872" x="145.564" y="10.8"/>
  </clipPath>
  <clipPath id="pfeddc89785">
   <rect height="16.632" width="332.64" x="121.68" y="356.716"/>
  </clipPath>
 </defs>
</svg>
