<?xml version="1.0" encoding="utf-8" standalone="no"?>
<!DOCTYPE svg PUBLIC "-//W3C//DTD SVG 1.1//EN"
  "http://www.w3.org/Graphics/SVG/1.1/DTD/svg11.dtd">
<svg height="432pt" version="1.1" viewBox="0 0 576 432" width="576pt" xmlns="http://www.w3.org/2000/svg" xmlns:xlink="http://www.w3.org/1999/xlink">
 <metadata>
  <rdf:RDF xmlns:cc="http://creativecommons.org/ns#" xmlns:dc="http://purl.org/dc/elements/1.1/" xmlns:rdf="http://www.w3.org/1999/02/22-rdf-syntax-ns#">
   <cc:Work>
    <dc:type rdf:resource="http://purl.org/dc/dcmitype/StillImage"/>
    <dc:date>2021-06-08T20:15:41.655683</dc:date>
    <dc:format>image/svg+xml</dc:format>
    <dc:creator>
     <cc:Agent>
      <dc:title>Matplotlib v3.4.2, https://matplotlib.org/</dc:title>
     </cc:Agent>
    </dc:creator>
   </cc:Work>
  </rdf:RDF>
 </metadata>
 <defs>
  <style type="text/css">*{stroke-linecap:butt;stroke-linejoin:round;}</style>
 </defs>
 <g id="figure_1">
  <g id="patch_1">
   <path d="M 0 432 
L 576 432 
L 576 0 
L 0 0 
z
" style="fill:#ffffff;"/>
  </g>
  <g id="axes_1">
   <g id="patch_2">
    <path d="M 85.265296 384.48 
L 505.134704 384.48 
L 505.134704 384.48 
L 505.134704 51.84 
L 505.134704 51.84 
L 85.265296 51.84 
L 85.265296 51.84 
L 85.265296 384.48 
" style="fill:#ffffff;stroke:#ffffff;stroke-linejoin:miter;"/>
   </g>
   <g id="PathCollection_1">
    <defs>
     <path d="M 0 3 
C 0.795609 3 1.55874 2.683901 2.12132 2.12132 
C 2.683901 1.55874 3 0.795609 3 0 
C 3 -0.795609 2.683901 -1.55874 2.12132 -2.12132 
C 1.55874 -2.683901 0.795609 -3 0 -3 
C -0.795609 -3 -1.55874 -2.683901 -2.12132 -2.12132 
C -2.683901 -1.55874 -3 -0.795609 -3 0 
C -3 0.795609 -2.683901 1.55874 -2.12132 2.12132 
C -1.55874 2.683901 -0.795609 3 0 3 
z
" id="mf9bc8144d5" style="stroke:#00ffff;"/>
    </defs>
    <g clip-path="url(#p44d0e6080b)">
     <use style="fill:#00ffff;stroke:#00ffff;" x="455.208825" xlink:href="#mf9bc8144d5" y="119.627218"/>
     <use style="fill:#00ffff;stroke:#00ffff;" x="252.955284" xlink:href="#mf9bc8144d5" y="151.301979"/>
     <use style="fill:#00ffff;stroke:#00ffff;" x="225.936523" xlink:href="#mf9bc8144d5" y="153.327823"/>
     <use style="fill:#00ffff;stroke:#00ffff;" x="177.450371" xlink:href="#mf9bc8144d5" y="157.934026"/>
     <use style="fill:#00ffff;stroke:#00ffff;" x="104.350269" xlink:href="#mf9bc8144d5" y="156.736919"/>
     <use style="fill:#00ffff;stroke:#00ffff;" x="138.158473" xlink:href="#mf9bc8144d5" y="156.39853"/>
     <use style="fill:#00ffff;stroke:#00ffff;" x="130.639814" xlink:href="#mf9bc8144d5" y="157.162589"/>
     <use style="fill:#00ffff;stroke:#00ffff;" x="124.993881" xlink:href="#mf9bc8144d5" y="158.078188"/>
     <use style="fill:#00ffff;stroke:#00ffff;" x="130.376156" xlink:href="#mf9bc8144d5" y="157.326338"/>
     <use style="fill:#00ffff;stroke:#00ffff;" x="128.939563" xlink:href="#mf9bc8144d5" y="157.710469"/>
     <use style="fill:#00ffff;stroke:#00ffff;" x="130.805784" xlink:href="#mf9bc8144d5" y="176.268062"/>
     <use style="fill:#00ffff;stroke:#00ffff;" x="132.842298" xlink:href="#mf9bc8144d5" y="216.451452"/>
     <use style="fill:#00ffff;stroke:#00ffff;" x="133.210556" xlink:href="#mf9bc8144d5" y="218.741482"/>
     <use style="fill:#00ffff;stroke:#00ffff;" x="126.921627" xlink:href="#mf9bc8144d5" y="219.045143"/>
     <use style="fill:#00ffff;stroke:#00ffff;" x="125.521505" xlink:href="#mf9bc8144d5" y="220.525287"/>
     <use style="fill:#00ffff;stroke:#00ffff;" x="135.917984" xlink:href="#mf9bc8144d5" y="219.552816"/>
     <use style="fill:#00ffff;stroke:#00ffff;" x="134.490416" xlink:href="#mf9bc8144d5" y="219.446407"/>
     <use style="fill:#00ffff;stroke:#00ffff;" x="133.756371" xlink:href="#mf9bc8144d5" y="217.629247"/>
     <use style="fill:#00ffff;stroke:#00ffff;" x="134.240066" xlink:href="#mf9bc8144d5" y="217.902732"/>
     <use style="fill:#00ffff;stroke:#00ffff;" x="136.140835" xlink:href="#mf9bc8144d5" y="217.764237"/>
     <use style="fill:#00ffff;stroke:#00ffff;" x="136.820349" xlink:href="#mf9bc8144d5" y="218.549184"/>
     <use style="fill:#00ffff;stroke:#00ffff;" x="136.901554" xlink:href="#mf9bc8144d5" y="218.558943"/>
    </g>
   </g>
   <g id="PathCollection_2">
    <defs>
     <path d="M 0 3 
C 0.795609 3 1.55874 2.683901 2.12132 2.12132 
C 2.683901 1.55874 3 0.795609 3 0 
C 3 -0.795609 2.683901 -1.55874 2.12132 -2.12132 
C 1.55874 -2.683901 0.795609 -3 0 -3 
C -0.795609 -3 -1.55874 -2.683901 -2.12132 -2.12132 
C -2.683901 -1.55874 -3 -0.795609 -3 0 
C -3 0.795609 -2.683901 1.55874 -2.12132 2.12132 
C -1.55874 2.683901 -0.795609 3 0 3 
z
" id="m3c0695b059" style="stroke:#00ff00;"/>
    </defs>
    <g clip-path="url(#p44d0e6080b)">
     <use style="fill:#00ff00;stroke:#00ff00;" x="459.698343" xlink:href="#m3c0695b059" y="268.46193"/>
     <use style="fill:#00ff00;stroke:#00ff00;" x="257.444801" xlink:href="#m3c0695b059" y="300.136692"/>
     <use style="fill:#00ff00;stroke:#00ff00;" x="230.42604" xlink:href="#m3c0695b059" y="302.162536"/>
     <use style="fill:#00ff00;stroke:#00ff00;" x="181.939889" xlink:href="#m3c0695b059" y="306.768739"/>
     <use style="fill:#00ff00;stroke:#00ff00;" x="108.839786" xlink:href="#m3c0695b059" y="305.571632"/>
     <use style="fill:#00ff00;stroke:#00ff00;" x="142.647991" xlink:href="#m3c0695b059" y="305.233243"/>
     <use style="fill:#00ff00;stroke:#00ff00;" x="135.129332" xlink:href="#m3c0695b059" y="305.997302"/>
     <use style="fill:#00ff00;stroke:#00ff00;" x="129.483398" xlink:href="#m3c0695b059" y="306.912901"/>
     <use style="fill:#00ff00;stroke:#00ff00;" x="134.865673" xlink:href="#m3c0695b059" y="306.161051"/>
     <use style="fill:#00ff00;stroke:#00ff00;" x="133.42908" xlink:href="#m3c0695b059" y="306.545183"/>
     <use style="fill:#00ff00;stroke:#00ff00;" x="135.295302" xlink:href="#m3c0695b059" y="325.102775"/>
     <use style="fill:#00ff00;stroke:#00ff00;" x="137.331815" xlink:href="#m3c0695b059" y="365.286165"/>
     <use style="fill:#00ff00;stroke:#00ff00;" x="137.700074" xlink:href="#m3c0695b059" y="367.576196"/>
     <use style="fill:#00ff00;stroke:#00ff00;" x="131.411145" xlink:href="#m3c0695b059" y="367.879856"/>
     <use style="fill:#00ff00;stroke:#00ff00;" x="130.011022" xlink:href="#m3c0695b059" y="369.36"/>
     <use style="fill:#00ff00;stroke:#00ff00;" x="140.407501" xlink:href="#m3c0695b059" y="368.38753"/>
     <use style="fill:#00ff00;stroke:#00ff00;" x="138.979934" xlink:href="#m3c0695b059" y="368.28112"/>
     <use style="fill:#00ff00;stroke:#00ff00;" x="138.245888" xlink:href="#m3c0695b059" y="366.46396"/>
     <use style="fill:#00ff00;stroke:#00ff00;" x="138.729584" xlink:href="#m3c0695b059" y="366.737445"/>
     <use style="fill:#00ff00;stroke:#00ff00;" x="140.630353" xlink:href="#m3c0695b059" y="366.59895"/>
     <use style="fill:#00ff00;stroke:#00ff00;" x="141.309867" xlink:href="#m3c0695b059" y="367.383897"/>
     <use style="fill:#00ff00;stroke:#00ff00;" x="141.391071" xlink:href="#m3c0695b059" y="367.393657"/>
    </g>
   </g>
   <g id="grid lines_1"/>
   <g id="grid lines_2"/>
   <g id="grid lines_3">
    <g id="patch_3">
     <path clip-path="url(#p32aabecb3c)" d="M 607.148276 601.591544 
L 109.99605 360.960622 
L 109.99605 360.960622 
" style="fill:none;stroke:#0000ff;stroke-dasharray:0.8,1.32;stroke-dashoffset:0;stroke-linejoin:miter;stroke-width:0.8;"/>
    </g>
    <g id="patch_4">
     <path clip-path="url(#p32aabecb3c)" d="M -132.596377 860.919422 
L 109.99605 360.960622 
L 109.99605 360.960622 
" style="fill:none;stroke:#0000ff;stroke-dasharray:0.8,1.32;stroke-dashoffset:0;stroke-linejoin:miter;stroke-width:0.8;"/>
    </g>
    <g id="patch_5">
     <path clip-path="url(#p32aabecb3c)" d="M -389.928235 118.987972 
L 109.99605 360.960622 
L 109.99605 360.960622 
" style="fill:none;stroke:#0000ff;stroke-dasharray:0.8,1.32;stroke-dashoffset:0;stroke-linejoin:miter;stroke-width:0.8;"/>
    </g>
    <g id="patch_6">
     <path clip-path="url(#p32aabecb3c)" d="M 350.942799 -135.606599 
L 109.99605 360.960622 
L 109.99605 360.960622 
" style="fill:none;stroke:#0000ff;stroke-dasharray:0.8,1.32;stroke-dashoffset:0;stroke-linejoin:miter;stroke-width:0.8;"/>
    </g>
   </g>
   <g id="grid lines_4">
    <g id="patch_7">
     <path clip-path="url(#p32aabecb3c)" d="M 525.325814 561.987951 
L 520.157265 572.381485 
L 514.728942 582.643018 
L 509.0442 592.766067 
L 503.106558 602.744235 
L 496.919692 612.571212 
L 490.487437 622.240781 
L 483.813784 631.746818 
L 476.902876 641.0833 
L 469.759006 650.244307 
L 462.386616 659.224026 
L 454.790295 668.016756 
L 446.97477 676.616908 
L 438.944914 685.019012 
L 430.705733 693.217721 
L 422.262368 701.207812 
L 413.620092 708.984189 
L 404.784305 716.541889 
L 395.760531 723.876086 
L 386.554417 730.982087 
L 377.171727 737.855346 
L 367.618338 744.491456 
L 357.900241 750.886162 
L 348.023532 757.035355 
L 337.994411 762.93508 
L 327.819177 768.581539 
L 317.504226 773.97109 
L 307.056046 779.100253 
L 296.48121 783.965708 
L 285.786379 788.564304 
L 274.978292 792.893054 
L 264.063761 796.949143 
L 253.049674 800.729924 
L 241.942982 804.232927 
L 230.7507 807.455855 
L 219.479901 810.396587 
L 208.137714 813.053181 
L 196.731313 815.423875 
L 185.26792 817.507088 
L 173.754797 819.301419 
L 162.199239 820.805654 
L 150.608574 822.018759 
L 138.990156 822.939889 
L 127.351362 823.568381 
L 115.699581 823.903762 
L 104.04222 823.945743 
L 92.38669 823.694224 
L 80.740404 823.149292 
L 69.110774 822.311222 
L 57.505206 821.180476 
L 45.931092 819.757703 
L 34.395808 818.043742 
L 22.90671 816.039616 
L 11.471126 813.746536 
L 0.096353 811.165898 
L -11.210347 808.299284 
L -22.441751 805.148459 
L -33.590686 801.715372 
L -44.650023 798.002155 
L -55.612693 794.01112 
L -66.471683 789.744756 
L -77.220045 785.205735 
L -87.8509 780.396902 
L -98.357441 775.321277 
L -108.732939 769.982054 
L -118.970749 764.382597 
L -129.064309 758.526438 
L -139.007151 752.417277 
L -148.792899 746.058978 
L -158.41528 739.455567 
L -167.868122 732.611227 
L -177.145362 725.5303 
L -186.241046 718.217282 
L -195.149341 710.676818 
L -203.864528 702.913702 
L -212.381014 694.932873 
L -220.693334 686.739412 
L -228.796152 678.338537 
L -236.684268 669.735602 
L -244.352618 660.936093 
L -251.79628 651.945623 
L -259.010478 642.769929 
L -265.990581 633.414869 
L -272.732111 623.886418 
L -279.230743 614.190664 
L -285.482309 604.333803 
L -291.482799 594.322135 
L -297.228367 584.162063 
L -302.715332 573.860084 
L -307.940177 563.422787 
L -312.899558 552.85685 
L -317.590302 542.169035 
L -322.009407 531.36618 
L -326.154051 520.455199 
L -330.021586 509.443076 
L -333.609545 498.33686 
L -336.915643 487.14366 
L -339.937774 475.87064 
L -342.674021 464.525017 
L -345.122647 453.114052 
L -347.282103 441.645048 
L -349.151029 430.125347 
L -350.728251 418.562319 
L -352.012783 406.963364 
L -353.00383 395.335901 
L -353.700787 383.687368 
L -354.103237 372.025215 
L -354.210954 360.3569 
L -354.023904 348.68988 
L -353.542242 337.031614 
L -352.766313 325.389551 
L -351.696652 313.771126 
L -350.333982 302.183761 
L -348.679218 290.634852 
L -346.73346 279.13177 
L -344.497995 267.681854 
L -341.9743 256.292406 
L -339.164032 244.970686 
L -336.069036 233.723909 
L -332.691337 222.55924 
L -329.033144 211.483787 
L -325.096842 200.504598 
L -320.884997 189.628657 
L -316.400348 178.86288 
L -311.645812 168.214107 
L -306.624475 157.689101 
L -301.339593 147.294544 
L -295.794592 137.037031 
L -289.993062 126.923064 
L -283.938754 116.959054 
L -277.635583 107.151308 
L -271.087619 97.506035 
L -264.299086 88.029335 
L -257.274364 78.727195 
L -250.017976 69.605491 
L -242.534597 60.66998 
L -234.82904 51.926295 
L -226.90626 43.379946 
L -218.771347 35.036313 
L -210.429524 26.900645 
L -201.886143 18.978055 
L -193.146683 11.273516 
L -184.216744 3.791863 
L -175.102042 -3.462217 
L -165.808412 -10.484181 
L -156.341797 -17.269639 
L -146.708246 -23.814353 
L -136.913913 -30.114238 
L -126.965048 -36.16537 
L -116.867999 -41.963983 
L -106.629202 -47.506474 
L -96.255179 -52.789403 
L -85.752536 -57.809497 
L -75.127956 -62.563653 
L -64.388194 -67.048936 
L -53.540076 -71.262583 
L -42.590493 -75.202004 
L -31.546393 -78.864784 
L -20.414785 -82.248686 
L -9.202725 -85.351646 
L 2.082682 -88.171782 
L 13.43429 -90.70739 
L 24.844914 -92.956945 
L 36.307335 -94.919105 
L 47.814308 -96.592708 
L 59.358561 -97.976776 
L 70.932804 -99.070511 
L 82.529732 -99.8733 
L 94.142028 -100.384711 
L 105.762371 -100.604498 
L 117.383438 -100.532596 
L 128.99791 -100.169122 
L 140.598473 -99.514378 
L 152.177829 -98.568848 
L 163.728694 -97.333195 
L 175.243806 -95.808268 
L 186.715931 -93.995092 
L 198.137862 -91.894874 
L 209.502429 -89.509 
L 220.802499 -86.839032 
L 232.030985 -83.886712 
L 243.180845 -80.653954 
L 254.245091 -77.142848 
L 265.21679 -73.355657 
L 276.08907 -69.294812 
L 286.855125 -64.962919 
L 297.508216 -60.362746 
L 308.041676 -55.497232 
L 318.448918 -50.369477 
L 328.723433 -44.982743 
L 338.858798 -39.340454 
L 348.848678 -33.44619 
L 358.686833 -27.303687 
L 368.367115 -20.916834 
L 377.883478 -14.289671 
L 387.229981 -7.426385 
L 396.400788 -0.33131 
L 405.390174 6.991079 
L 414.192527 14.536165 
L 422.802356 22.299196 
L 431.214286 30.275285 
L 439.423068 38.459414 
L 447.423581 46.846438 
L 455.210832 55.431084 
L 462.779962 64.207962 
L 470.126248 73.17156 
L 477.245106 82.316254 
L 484.132092 91.636306 
L 490.782908 101.125871 
L 497.193401 110.779002 
L 503.359569 120.589647 
L 509.27756 130.55166 
L 514.943676 140.6588 
L 520.354376 150.904739 
L 525.506276 161.28306 
L 530.396155 171.787267 
L 535.02095 182.410783 
L 539.377766 193.146961 
L 543.463871 203.989082 
L 547.276703 214.93036 
L 550.813866 225.963949 
L 554.073138 237.082946 
L 557.052465 248.280393 
L 559.749971 259.549282 
L 562.163949 270.882564 
L 564.292872 282.273145 
L 566.135386 293.713897 
L 567.690316 305.197659 
L 568.956665 316.717243 
L 569.933615 328.265436 
L 570.620525 339.835007 
L 571.016936 351.418711 
L 571.122568 363.009292 
L 570.937322 374.599488 
L 570.46128 386.182035 
L 569.694701 397.749673 
L 568.638029 409.295149 
L 567.291886 420.811221 
L 565.657073 432.290665 
L 563.734572 443.726276 
L 561.525545 455.110875 
L 559.03133 466.437311 
L 556.253445 477.698469 
L 553.193583 488.88727 
L 549.853615 499.996679 
L 546.235585 511.019707 
L 542.341714 521.949416 
L 538.174393 532.778925 
L 533.736184 543.501412 
L 529.029822 554.110118 
L 525.325814 561.987951 
L 525.325814 561.987951 
" style="fill:none;stroke:#0000ff;stroke-dasharray:0.8,1.32;stroke-dashoffset:0;stroke-linejoin:miter;stroke-width:0.8;"/>
    </g>
    <g id="patch_8">
     <path clip-path="url(#p32aabecb3c)" d="M 442.109884 521.709893 
L 437.972176 530.018527 
L 433.626775 538.221319 
L 429.07638 546.313086 
L 424.32382 554.288712 
L 419.372051 562.143155 
L 414.224156 569.871442 
L 408.88334 577.468682 
L 403.352934 584.93006 
L 397.636384 592.250849 
L 391.73726 599.426405 
L 385.659244 606.452175 
L 379.406133 613.323696 
L 372.981835 620.036605 
L 366.39037 626.586631 
L 359.635862 632.969608 
L 352.722541 639.181472 
L 345.654736 645.218264 
L 338.436879 651.076136 
L 331.073496 656.751349 
L 323.569207 662.240278 
L 315.928724 667.539415 
L 308.156846 672.645369 
L 300.258457 677.554871 
L 292.238523 682.264771 
L 284.102091 686.772049 
L 275.85428 691.073808 
L 267.500285 695.16728 
L 259.045369 699.049829 
L 250.494862 702.718952 
L 241.854156 706.172277 
L 233.128704 709.407569 
L 224.324013 712.422733 
L 215.445644 715.215808 
L 206.499208 717.784976 
L 197.490359 720.12856 
L 188.424796 722.245024 
L 179.308255 724.132979 
L 170.146506 725.791176 
L 160.945353 727.218515 
L 151.710625 728.414041 
L 142.448176 729.376946 
L 133.16388 730.106571 
L 123.863626 730.602404 
L 114.553318 730.864081 
L 105.238867 730.891389 
L 95.92619 730.684265 
L 86.621205 730.242791 
L 77.329827 729.567205 
L 68.057964 728.657888 
L 58.811516 727.515376 
L 49.596367 726.14035 
L 40.418384 724.533643 
L 31.283412 722.696234 
L 22.197271 720.629251 
L 13.165752 718.33397 
L 4.194613 715.811812 
L -4.710426 713.064345 
L -13.543684 710.09328 
L -22.299524 706.900475 
L -30.972358 703.487927 
L -39.55665 699.857777 
L -48.046915 696.012305 
L -56.437733 691.953931 
L -64.723741 687.68521 
L -72.899644 683.208835 
L -80.960216 678.527633 
L -88.900304 673.64456 
L -96.71483 668.562707 
L -104.398798 663.28529 
L -111.947292 657.815652 
L -119.355482 652.157262 
L -126.61863 646.31371 
L -133.732087 640.288704 
L -140.691301 634.086073 
L -147.491819 627.709758 
L -154.129288 621.163813 
L -160.599459 614.452403 
L -166.898192 607.579798 
L -173.021455 600.550374 
L -178.965329 593.368609 
L -184.72601 586.039078 
L -190.299811 578.566451 
L -195.683165 570.955494 
L -200.872629 563.211058 
L -205.864883 555.338085 
L -210.656733 547.341596 
L -215.245116 539.226693 
L -219.627099 530.998557 
L -223.799882 522.662438 
L -227.760798 514.223659 
L -231.507319 505.687607 
L -235.037054 497.059733 
L -238.347752 488.345546 
L -241.437301 479.550611 
L -244.303735 470.680545 
L -246.94523 461.741013 
L -249.360106 452.737724 
L -251.54683 443.676428 
L -253.504017 434.562911 
L -255.230428 425.402994 
L -256.724974 416.202526 
L -257.986715 406.967381 
L -259.014861 397.703455 
L -259.808773 388.416663 
L -260.36796 379.112932 
L -260.692086 369.7982 
L -260.780964 360.47841 
L -260.634559 351.159508 
L -260.252986 341.847439 
L -259.636514 332.548142 
L -258.785559 323.267546 
L -257.700692 314.011566 
L -256.38263 304.786103 
L -254.832241 295.597032 
L -253.050545 286.450209 
L -251.038705 277.351456 
L -248.798035 268.306567 
L -246.329994 259.321296 
L -243.636188 250.401361 
L -240.718366 241.552433 
L -237.578419 232.780138 
L -234.218383 224.090051 
L -230.64043 215.487691 
L -226.846876 206.97852 
L -222.84017 198.567939 
L -218.622898 190.261285 
L -214.197781 182.063823 
L -209.56767 173.980751 
L -204.735548 166.017188 
L -199.704525 158.178177 
L -194.477836 150.468679 
L -189.058842 142.893571 
L -183.451023 135.457641 
L -177.657981 128.165588 
L -171.683432 121.022015 
L -165.531207 114.031431 
L -159.205251 107.198245 
L -152.709615 100.526762 
L -146.048457 94.021185 
L -139.226041 87.685609 
L -132.246729 81.524017 
L -125.114983 75.540281 
L -117.835358 69.73816 
L -110.412502 64.121294 
L -102.851154 58.693203 
L -95.156135 53.457288 
L -87.332353 48.416824 
L -79.384791 43.574963 
L -71.318512 38.934727 
L -63.138651 34.499012 
L -54.850412 30.27058 
L -46.459065 26.252063 
L -37.969945 22.445957 
L -29.388444 18.854624 
L -20.720012 15.480289 
L -11.970151 12.325037 
L -3.144412 9.390815 
L 5.75161 6.67943 
L 14.712276 4.192547 
L 23.731908 1.931688 
L 32.804797 -0.101767 
L 41.925199 -1.906584 
L 51.087345 -3.481671 
L 60.285441 -4.826083 
L 69.513673 -5.939021 
L 78.766211 -6.81983 
L 88.037211 -7.468004 
L 97.320821 -7.883182 
L 106.611183 -8.065149 
L 115.902437 -8.013837 
L 125.188726 -7.729327 
L 134.464196 -7.211843 
L 143.723004 -6.461757 
L 152.95932 -5.479587 
L 162.167329 -4.265995 
L 171.341237 -2.821788 
L 180.475272 -1.147919 
L 189.563691 0.754516 
L 198.600781 2.884281 
L 207.580862 5.239994 
L 216.498294 7.820135 
L 225.347475 10.623044 
L 234.12285 13.646919 
L 242.818912 16.889825 
L 251.430202 20.349687 
L 259.951321 24.024298 
L 268.376923 27.911315 
L 276.701727 32.008264 
L 284.920512 36.312542 
L 293.02813 40.821415 
L 301.0195 45.532024 
L 308.889615 50.441384 
L 316.633546 55.546386 
L 324.246444 60.843802 
L 331.723542 66.330283 
L 339.060159 72.002363 
L 346.251702 77.856462 
L 353.293671 83.888886 
L 360.181657 90.095832 
L 366.911351 96.473388 
L 373.47854 103.017538 
L 379.879115 109.72416 
L 386.109072 116.589035 
L 392.164511 123.607844 
L 398.041644 130.776173 
L 403.736792 138.089516 
L 409.24639 145.543276 
L 414.566991 153.132771 
L 419.695263 160.853233 
L 424.627995 168.699815 
L 429.362098 176.667591 
L 433.894607 184.751558 
L 438.222681 192.946644 
L 442.343608 201.247706 
L 446.254803 209.649536 
L 449.953813 218.146863 
L 453.438317 226.734357 
L 456.706125 235.406632 
L 459.755185 244.158248 
L 462.583579 252.983717 
L 465.189526 261.877504 
L 467.571383 270.834031 
L 469.727649 279.847681 
L 471.656959 288.9128 
L 473.358092 298.023703 
L 474.829968 307.174675 
L 476.07165 316.359976 
L 477.082343 325.573843 
L 477.861397 334.810494 
L 478.408304 344.064135 
L 478.722703 353.328957 
L 478.804377 362.599146 
L 478.653252 371.86888 
L 478.269402 381.132339 
L 477.653043 390.383705 
L 476.804538 399.617168 
L 475.724395 408.826924 
L 474.413264 418.007186 
L 472.871943 427.152182 
L 471.10137 436.256162 
L 469.102629 445.313399 
L 466.876944 454.318195 
L 464.425685 463.264881 
L 461.750359 472.147824 
L 458.852616 480.96143 
L 455.734244 489.700146 
L 452.397172 498.358463 
L 448.843462 506.930921 
L 445.075317 515.412114 
L 442.109884 521.709893 
L 442.109884 521.709893 
" style="fill:none;stroke:#0000ff;stroke-dasharray:0.8,1.32;stroke-dashoffset:0;stroke-linejoin:miter;stroke-width:0.8;"/>
    </g>
    <g id="patch_9">
     <path clip-path="url(#p32aabecb3c)" d="M 359.019681 481.49269 
L 355.112703 489.265538 
L 350.963221 496.912524 
L 346.575283 504.426096 
L 341.953172 511.798829 
L 337.101401 519.023432 
L 332.024712 526.092759 
L 326.728068 532.999814 
L 321.216651 539.737756 
L 315.495856 546.29991 
L 309.571286 552.679769 
L 303.448745 558.871007 
L 297.134238 564.867476 
L 290.633958 570.663221 
L 283.954283 576.252481 
L 277.101774 581.629697 
L 270.083161 586.789515 
L 262.905343 591.726797 
L 255.575379 596.436617 
L 248.10048 600.914278 
L 240.488002 605.155304 
L 232.745444 609.155455 
L 224.880432 612.910727 
L 216.900719 616.417354 
L 208.814175 619.671817 
L 200.628776 622.670844 
L 192.352603 625.411415 
L 183.993827 627.890763 
L 175.560706 630.106382 
L 167.061575 632.056023 
L 158.504838 633.737702 
L 149.898958 635.149699 
L 141.252451 636.290561 
L 132.573878 637.159105 
L 123.871834 637.754415 
L 115.15494 638.07585 
L 106.431837 638.123037 
L 97.711173 637.895879 
L 89.001599 637.39455 
L 80.311757 636.619497 
L 71.650273 635.57144 
L 63.025748 634.25137 
L 54.446748 632.660552 
L 45.921797 630.800519 
L 37.45937 628.673073 
L 29.067879 626.280284 
L 20.75567 623.624487 
L 12.531013 620.708279 
L 4.402092 617.534519 
L -3.623003 614.106325 
L -11.536281 610.427068 
L -19.329863 606.500371 
L -26.995987 602.330105 
L -34.527013 597.920387 
L -41.91544 593.275573 
L -49.153904 588.400255 
L -56.235189 583.299257 
L -63.152238 577.977629 
L -69.898154 572.440644 
L -76.46621 566.693791 
L -82.849858 560.742769 
L -89.042731 554.593483 
L -95.038655 548.252039 
L -100.831649 541.724732 
L -106.415936 535.018049 
L -111.785949 528.138654 
L -116.936332 521.093385 
L -121.861951 513.889248 
L -126.557896 506.533407 
L -131.019485 499.033181 
L -135.242273 491.396032 
L -139.222054 483.62956 
L -142.954863 475.741493 
L -146.436986 467.739684 
L -149.664957 459.632098 
L -152.635566 451.426807 
L -155.345861 443.131979 
L -157.793151 434.755872 
L -159.975008 426.306827 
L -161.889271 417.793254 
L -163.534045 409.223629 
L -164.907709 400.606484 
L -166.00891 391.950396 
L -166.836569 383.263981 
L -167.389882 374.555883 
L -167.66832 365.834769 
L -167.671627 357.109314 
L -167.399824 348.3882 
L -166.853208 339.6801 
L -166.032348 330.993673 
L -164.93809 322.337556 
L -163.571552 313.720352 
L -161.934124 305.150624 
L -160.027467 296.636886 
L -157.853509 288.187593 
L -155.414447 279.811133 
L -152.712741 271.515822 
L -149.751111 263.309888 
L -146.532538 255.201472 
L -143.060258 247.198612 
L -139.337757 239.309241 
L -135.368773 231.541173 
L -131.157286 223.902102 
L -126.707517 216.399588 
L -122.023923 209.041054 
L -117.111192 201.833778 
L -111.974239 194.784882 
L -106.618201 187.90133 
L -101.04843 181.189919 
L -95.270487 174.657271 
L -89.290143 168.309828 
L -83.113361 162.153847 
L -76.746304 156.19539 
L -70.195316 150.440323 
L -63.466923 144.894307 
L -56.567825 139.562791 
L -49.504888 134.451013 
L -42.285138 129.563988 
L -34.915753 124.906507 
L -27.404057 120.483133 
L -19.757511 116.298193 
L -11.983707 112.355778 
L -4.090359 108.659737 
L 3.914702 105.213673 
L 12.02354 102.020942 
L 20.228119 99.084645 
L 28.520312 96.407633 
L 36.891907 93.992497 
L 45.33462 91.841568 
L 53.840099 89.956917 
L 62.399931 88.340351 
L 71.005658 86.993411 
L 79.648775 85.917374 
L 88.320747 85.113248 
L 97.013012 84.581773 
L 105.716992 84.323421 
L 114.424102 84.338394 
L 123.125755 84.626626 
L 131.813373 85.187783 
L 140.478397 86.021262 
L 149.112291 87.126192 
L 157.706554 88.501438 
L 166.252726 90.145599 
L 174.742396 92.057009 
L 183.167215 94.233742 
L 191.518895 96.673612 
L 199.789228 99.374178 
L 207.970084 102.332739 
L 216.053424 105.546348 
L 224.031309 109.011804 
L 231.895902 112.725664 
L 239.639483 116.684242 
L 247.254448 120.883611 
L 254.733325 125.319612 
L 262.068773 129.987855 
L 269.253597 134.883724 
L 276.280748 140.00238 
L 283.143332 145.33877 
L 289.83462 150.887626 
L 296.34805 156.643475 
L 302.677234 162.600644 
L 308.815967 168.753262 
L 314.758229 175.095268 
L 320.498195 181.62042 
L 326.030236 188.322293 
L 331.348927 195.194295 
L 336.449052 202.229666 
L 341.325611 209.421488 
L 345.973819 216.762689 
L 350.389115 224.246054 
L 354.567168 231.864229 
L 358.503876 239.609728 
L 362.195375 247.47494 
L 365.638036 255.452141 
L 368.828478 263.533493 
L 371.763563 271.71106 
L 374.440403 279.976809 
L 376.856362 288.322622 
L 379.009057 296.740303 
L 380.896365 305.221584 
L 382.516418 313.758134 
L 383.867611 322.34157 
L 384.948602 330.963459 
L 385.758312 339.61533 
L 386.295924 348.288684 
L 386.560891 356.974998 
L 386.552931 365.665733 
L 386.272026 374.352349 
L 385.718427 383.026305 
L 384.892653 391.67907 
L 383.795486 400.302136 
L 382.427975 408.887019 
L 380.791434 417.42527 
L 378.887441 425.908486 
L 376.717834 434.328314 
L 374.284714 442.676462 
L 371.590438 450.944705 
L 368.637622 459.124894 
L 365.429134 467.208966 
L 361.968094 475.188946 
L 359.019681 481.49269 
L 359.019681 481.49269 
" style="fill:none;stroke:#0000ff;stroke-dasharray:0.8,1.32;stroke-dashoffset:0;stroke-linejoin:miter;stroke-width:0.8;"/>
    </g>
    <g id="patch_10">
     <path clip-path="url(#p32aabecb3c)" d="M 276.004387 441.311744 
L 272.855925 447.517959 
L 269.475483 453.601575 
L 265.867831 459.553934 
L 262.038064 465.366564 
L 257.991592 471.031186 
L 253.734131 476.539731 
L 249.271703 481.884346 
L 244.610618 487.057411 
L 239.757473 492.051546 
L 234.719139 496.859622 
L 229.502749 501.474773 
L 224.115696 505.890405 
L 218.565614 510.100204 
L 212.860374 514.098149 
L 207.008068 517.878515 
L 201.017001 521.435886 
L 194.895677 524.765164 
L 188.652789 527.861569 
L 182.297207 530.720655 
L 175.837963 533.338311 
L 169.284239 535.710769 
L 162.645357 537.834607 
L 155.930761 539.706759 
L 149.150008 541.324517 
L 142.31275 542.685533 
L 135.428727 543.787825 
L 128.507744 544.629781 
L 121.559666 545.210159 
L 114.594396 545.528091 
L 107.621869 545.583083 
L 100.652029 545.375016 
L 93.694821 544.90415 
L 86.760176 544.171117 
L 79.857994 543.176926 
L 72.998133 541.92296 
L 66.19039 540.410975 
L 59.444493 538.643095 
L 52.770083 536.621812 
L 46.176701 534.349982 
L 39.673774 531.830819 
L 33.270602 529.067893 
L 26.976344 526.065126 
L 20.800005 522.826782 
L 14.750422 519.357464 
L 8.836252 515.66211 
L 3.065961 511.745979 
L -2.552191 507.61465 
L -8.010162 503.274012 
L -13.300138 498.730254 
L -18.414543 493.989859 
L -23.346054 489.059591 
L -28.087611 483.94649 
L -32.632423 478.657857 
L -36.973982 473.201246 
L -41.106073 467.584455 
L -45.022779 461.81551 
L -48.718493 455.902658 
L -52.187925 449.854351 
L -55.42611 443.679238 
L -58.428416 437.386149 
L -61.190548 430.984085 
L -63.708556 424.4822 
L -65.978843 417.889796 
L -67.998166 411.216302 
L -69.763643 404.471263 
L -71.272756 397.664327 
L -72.523357 390.80523 
L -73.513668 383.903782 
L -74.242286 376.969854 
L -74.708183 370.01336 
L -74.910708 363.04425 
L -74.84959 356.072485 
L -74.524933 349.108033 
L -73.937223 342.160848 
L -73.087321 335.240858 
L -71.976465 328.357951 
L -70.606266 321.521958 
L -68.978708 314.742644 
L -67.096142 308.029688 
L -64.961286 301.392673 
L -62.577216 294.84107 
L -59.947368 288.384228 
L -57.075527 282.031356 
L -53.965824 275.791512 
L -50.622729 269.67359 
L -47.051046 263.686308 
L -43.255904 257.838193 
L -39.242751 252.137572 
L -35.017345 246.592559 
L -30.585745 241.211041 
L -25.954303 236.00067 
L -21.129656 230.968854 
L -16.118714 226.122739 
L -10.928652 221.469206 
L -5.566895 217.01486 
L -0.041116 212.766017 
L 5.640786 208.7287 
L 11.470687 204.908626 
L 17.440259 201.311203 
L 23.540973 197.941519 
L 29.764121 194.804335 
L 36.100819 191.90408 
L 42.542027 189.244843 
L 49.078559 186.830372 
L 55.701095 184.66406 
L 62.400198 182.748952 
L 69.166322 181.087729 
L 75.989832 179.682715 
L 82.861013 178.535865 
L 89.770085 177.648771 
L 96.707219 177.022653 
L 103.662547 176.658359 
L 110.62618 176.556367 
L 117.588221 176.716783 
L 124.538774 177.13934 
L 131.467968 177.823398 
L 138.365961 178.76795 
L 145.222958 179.971617 
L 152.029228 181.432654 
L 158.775112 183.148952 
L 165.451039 185.118042 
L 172.04754 187.337097 
L 178.55526 189.802937 
L 184.964975 192.512033 
L 191.267596 195.460514 
L 197.454193 198.644169 
L 203.515999 202.058458 
L 209.444426 205.698515 
L 215.231075 209.559155 
L 220.867751 213.634882 
L 226.346471 217.919898 
L 231.659475 222.40811 
L 236.799242 227.093139 
L 241.758493 231.968328 
L 246.530206 237.026753 
L 251.107625 242.261232 
L 255.48427 247.664335 
L 259.653942 253.228394 
L 263.610738 258.945516 
L 267.349053 264.807591 
L 270.863593 270.806304 
L 274.149379 276.933151 
L 277.201754 283.179443 
L 280.016393 289.536325 
L 282.589305 295.994785 
L 284.916839 302.545669 
L 286.995692 309.179691 
L 288.822911 315.887448 
L 290.3959 322.65943 
L 291.712419 329.48604 
L 292.77059 336.3576 
L 293.568903 343.264369 
L 294.106211 350.196554 
L 294.381737 357.144327 
L 294.395075 364.097835 
L 294.146185 371.047218 
L 293.635403 377.982617 
L 292.863431 384.894193 
L 291.831343 391.77214 
L 290.540578 398.606696 
L 288.992943 405.388161 
L 287.190609 412.106904 
L 285.136106 418.753385 
L 282.832322 425.318161 
L 280.282498 431.791905 
L 277.490226 438.165415 
L 276.004387 441.311744 
L 276.004387 441.311744 
" style="fill:none;stroke:#0000ff;stroke-dasharray:0.8,1.32;stroke-dashoffset:0;stroke-linejoin:miter;stroke-width:0.8;"/>
    </g>
    <g id="patch_11">
     <path clip-path="url(#p32aabecb3c)" d="M 193.013369 401.142548 
L 190.885815 405.265983 
L 188.553473 409.277564 
L 186.022223 413.16714 
L 183.298444 416.924865 
L 180.389005 420.541225 
L 177.301246 424.00706 
L 174.042958 427.313591 
L 170.622363 430.452437 
L 167.048099 433.415641 
L 163.329191 436.195687 
L 159.475032 438.785522 
L 155.495361 441.178571 
L 151.400236 443.368758 
L 147.200007 445.350515 
L 142.905295 447.118805 
L 138.526963 448.669127 
L 134.076085 449.997531 
L 129.563925 451.10063 
L 125.001901 451.975607 
L 120.401563 452.62022 
L 115.774558 453.032812 
L 111.132605 453.212315 
L 106.487463 453.15825 
L 101.8509 452.87073 
L 97.234665 452.350462 
L 92.65046 451.598741 
L 88.109904 450.617453 
L 83.624511 449.409063 
L 79.205654 447.976616 
L 74.864542 446.323725 
L 70.612186 444.454564 
L 66.459373 442.373855 
L 62.41664 440.08686 
L 58.494247 437.599366 
L 54.702146 434.917667 
L 51.049962 432.048554 
L 47.546964 428.999296 
L 44.202044 425.777616 
L 41.023692 422.39168 
L 38.019975 418.85007 
L 35.198518 415.161765 
L 32.566482 411.336118 
L 30.130547 407.38283 
L 27.896894 403.311928 
L 25.871192 399.133738 
L 24.058579 394.858858 
L 22.463652 390.498132 
L 21.090456 386.062623 
L 19.94247 381.563585 
L 19.022602 377.012429 
L 18.333179 372.420701 
L 17.875943 367.80005 
L 17.652044 363.162196 
L 17.662041 358.518902 
L 17.905899 353.881945 
L 18.382985 349.263083 
L 19.092078 344.674029 
L 20.031365 340.126417 
L 21.198449 335.631774 
L 22.590356 331.201493 
L 24.203539 326.8468 
L 26.033893 322.578728 
L 28.07676 318.408089 
L 30.326944 314.345445 
L 32.778723 310.401083 
L 35.425867 306.584986 
L 38.261649 302.906812 
L 41.278866 299.375866 
L 44.469856 296.00108 
L 47.826518 292.790984 
L 51.340334 289.753693 
L 55.002387 286.896881 
L 58.803389 284.227761 
L 62.7337 281.753073 
L 66.783355 279.479059 
L 70.942091 277.411455 
L 75.199368 275.55547 
L 79.544401 273.91578 
L 83.966184 272.496509 
L 88.453522 271.301224 
L 92.995053 270.332926 
L 97.579283 269.59404 
L 102.194611 269.086409 
L 106.829361 268.811294 
L 111.471809 268.769367 
L 116.110215 268.960711 
L 120.732852 269.384817 
L 125.328034 270.040593 
L 129.884147 270.926359 
L 134.389677 272.039855 
L 138.833241 273.378248 
L 143.203614 274.938135 
L 147.489756 276.715559 
L 151.680843 278.70601 
L 155.766291 280.904444 
L 159.735786 283.305294 
L 163.579306 285.902481 
L 167.287148 288.689432 
L 170.849951 291.659097 
L 174.258724 294.803967 
L 177.504863 298.116089 
L 180.580173 301.587092 
L 183.476892 305.208204 
L 186.18771 308.970275 
L 188.705784 312.863799 
L 191.024755 316.878943 
L 193.138771 321.005563 
L 195.042492 325.233237 
L 196.73111 329.551287 
L 198.200359 333.94881 
L 199.446525 338.414698 
L 200.466457 342.937674 
L 201.257574 347.506315 
L 201.817871 352.109083 
L 202.145924 356.734354 
L 202.240896 361.370443 
L 202.102536 366.005641 
L 201.731184 370.628237 
L 201.127763 375.226554 
L 200.293785 379.78897 
L 199.231343 384.303957 
L 197.943106 388.760103 
L 196.432312 393.146141 
L 194.702763 397.450982 
L 193.013369 401.142548 
L 193.013369 401.142548 
" style="fill:none;stroke:#0000ff;stroke-dasharray:0.8,1.32;stroke-dashoffset:0;stroke-linejoin:miter;stroke-width:0.8;"/>
    </g>
    <g id="patch_12">
     <path clip-path="url(#p32aabecb3c)" d="M 109.99605 360.960622 
M 109.99605 360.960622 
M 109.99605 360.960622 
M 109.99605 360.960622 
M 109.99605 360.960622 
M 109.99605 360.960622 
M 109.99605 360.960622 
M 109.99605 360.960622 
M 109.99605 360.960622 
M 109.99605 360.960622 
M 109.99605 360.960622 
L 109.99605 360.960622 
" style="fill:none;stroke:#0000ff;stroke-dasharray:0.8,1.32;stroke-dashoffset:0;stroke-linejoin:miter;stroke-width:0.8;"/>
    </g>
   </g>
   <g id="ticks_1">
    <defs>
     <path d="M 0 0 
L 0.277703 3.488966 
" id="m871354d9ca" style="stroke:#000000;stroke-width:0.8;"/>
    </defs>
    <g>
     <use style="fill:none;stroke:#000000;stroke-width:0.8;" x="111.69575" xlink:href="#m871354d9ca" y="384.48"/>
     <use style="fill:none;stroke:#000000;stroke-width:0.8;" x="111.69575" xlink:href="#m871354d9ca" y="384.48"/>
    </g>
    <defs>
     <path d="M 0 0 
L 3.178545 1.465213 
" id="mb8fcb2d2e1" style="stroke:#000000;stroke-width:0.8;"/>
    </defs>
    <g>
     <use style="fill:none;stroke:#000000;stroke-width:0.8;" x="158.589855" xlink:href="#mb8fcb2d2e1" y="384.48"/>
     <use style="fill:none;stroke:#000000;stroke-width:0.8;" x="158.589855" xlink:href="#mb8fcb2d2e1" y="384.48"/>
    </g>
    <g>
     <use style="fill:none;stroke:#000000;stroke-width:0.8;" x="158.589855" xlink:href="#mb8fcb2d2e1" y="384.48"/>
     <use style="fill:none;stroke:#000000;stroke-width:0.8;" x="158.589855" xlink:href="#mb8fcb2d2e1" y="384.48"/>
    </g>
    <defs>
     <path d="M 0 0 
L -2.879514 1.989573 
" id="ma0afdd8d61" style="stroke:#000000;stroke-width:0.8;"/>
    </defs>
    <g>
     <use style="fill:none;stroke:#000000;stroke-width:0.8;" x="85.265296" xlink:href="#ma0afdd8d61" y="377.72269"/>
     <use style="fill:none;stroke:#000000;stroke-width:0.8;" x="85.265296" xlink:href="#ma0afdd8d61" y="377.72269"/>
    </g>
    <defs>
     <path d="M 0 0 
L -3.086222 -1.650829 
" id="m9eaa9c4ab1" style="stroke:#000000;stroke-width:0.8;"/>
    </defs>
    <g>
     <use style="fill:none;stroke:#000000;stroke-width:0.8;" x="85.265296" xlink:href="#m9eaa9c4ab1" y="348.989487"/>
     <use style="fill:none;stroke:#000000;stroke-width:0.8;" x="85.265296" xlink:href="#m9eaa9c4ab1" y="348.989487"/>
    </g>
    <defs>
     <path d="M 0 0 
L -0.250487 -3.491025 
" id="m48eab79f65" style="stroke:#000000;stroke-width:0.8;"/>
    </defs>
    <g>
     <use style="fill:none;stroke:#000000;stroke-width:0.8;" x="87.663654" xlink:href="#m48eab79f65" y="51.84"/>
     <use style="fill:none;stroke:#000000;stroke-width:0.8;" x="87.663654" xlink:href="#m48eab79f65" y="51.84"/>
    </g>
    <defs>
     <path d="M 0 0 
L 2.898258 -1.962168 
" id="m18ecd00fec" style="stroke:#000000;stroke-width:0.8;"/>
    </defs>
    <g>
     <use style="fill:none;stroke:#000000;stroke-width:0.8;" x="505.134704" xlink:href="#m18ecd00fec" y="93.148445"/>
     <use style="fill:none;stroke:#000000;stroke-width:0.8;" x="505.134704" xlink:href="#m18ecd00fec" y="93.148445"/>
    </g>
    <g id="text_1">
     <!-- 4$\mathregular{^h}$ -->
     <g transform="translate(106.09575 399.400313)scale(0.1 -0.1)">
      <defs>
       <path d="M 2419 4116 
L 825 1625 
L 2419 1625 
L 2419 4116 
z
M 2253 4666 
L 3047 4666 
L 3047 1625 
L 3713 1625 
L 3713 1100 
L 3047 1100 
L 3047 0 
L 2419 0 
L 2419 1100 
L 313 1100 
L 313 1709 
L 2253 4666 
z
" id="DejaVuSans-34" transform="scale(0.015625)"/>
       <path d="M 3513 2113 
L 3513 0 
L 2938 0 
L 2938 2094 
Q 2938 2591 2744 2837 
Q 2550 3084 2163 3084 
Q 1697 3084 1428 2787 
Q 1159 2491 1159 1978 
L 1159 0 
L 581 0 
L 581 4863 
L 1159 4863 
L 1159 2956 
Q 1366 3272 1645 3428 
Q 1925 3584 2291 3584 
Q 2894 3584 3203 3211 
Q 3513 2838 3513 2113 
z
" id="DejaVuSans-68" transform="scale(0.015625)"/>
      </defs>
      <use transform="translate(0 0.529687)" xlink:href="#DejaVuSans-34"/>
      <use transform="translate(64.580078 38.810937)scale(0.7)" xlink:href="#DejaVuSans-68"/>
     </g>
    </g>
    <g id="text_2">
     <!-- 0$\mathregular{^h}$ -->
     <g transform="translate(152.989855 399.400313)scale(0.1 -0.1)">
      <defs>
       <path d="M 2034 4250 
Q 1547 4250 1301 3770 
Q 1056 3291 1056 2328 
Q 1056 1369 1301 889 
Q 1547 409 2034 409 
Q 2525 409 2770 889 
Q 3016 1369 3016 2328 
Q 3016 3291 2770 3770 
Q 2525 4250 2034 4250 
z
M 2034 4750 
Q 2819 4750 3233 4129 
Q 3647 3509 3647 2328 
Q 3647 1150 3233 529 
Q 2819 -91 2034 -91 
Q 1250 -91 836 529 
Q 422 1150 422 2328 
Q 422 3509 836 4129 
Q 1250 4750 2034 4750 
z
" id="DejaVuSans-30" transform="scale(0.015625)"/>
      </defs>
      <use transform="translate(0 0.529687)" xlink:href="#DejaVuSans-30"/>
      <use transform="translate(64.580078 38.810937)scale(0.7)" xlink:href="#DejaVuSans-68"/>
     </g>
    </g>
    <g id="text_3">
     <!-- 24$\mathregular{^h}$ -->
     <g transform="translate(149.789855 399.400313)scale(0.1 -0.1)">
      <defs>
       <path d="M 1228 531 
L 3431 531 
L 3431 0 
L 469 0 
L 469 531 
Q 828 903 1448 1529 
Q 2069 2156 2228 2338 
Q 2531 2678 2651 2914 
Q 2772 3150 2772 3378 
Q 2772 3750 2511 3984 
Q 2250 4219 1831 4219 
Q 1534 4219 1204 4116 
Q 875 4013 500 3803 
L 500 4441 
Q 881 4594 1212 4672 
Q 1544 4750 1819 4750 
Q 2544 4750 2975 4387 
Q 3406 4025 3406 3419 
Q 3406 3131 3298 2873 
Q 3191 2616 2906 2266 
Q 2828 2175 2409 1742 
Q 1991 1309 1228 531 
z
" id="DejaVuSans-32" transform="scale(0.015625)"/>
      </defs>
      <use transform="translate(0 0.529687)" xlink:href="#DejaVuSans-32"/>
      <use transform="translate(63.623047 0.529687)" xlink:href="#DejaVuSans-34"/>
      <use transform="translate(128.203125 38.810937)scale(0.7)" xlink:href="#DejaVuSans-68"/>
     </g>
    </g>
   </g>
   <g id="ticks_2">
    <defs>
     <path d="M 0 0 
L -0.211131 3.493626 
" id="mf62e9eddf9" style="stroke:#000000;stroke-width:0.8;"/>
    </defs>
    <g>
     <use style="fill:none;stroke:#000000;stroke-width:0.8;" x="478.073714" xlink:href="#mf62e9eddf9" y="384.48"/>
     <use style="fill:none;stroke:#000000;stroke-width:0.8;" x="478.073714" xlink:href="#mf62e9eddf9" y="384.48"/>
    </g>
    <defs>
     <path d="M 0 0 
L -0.28366 3.488486 
" id="m36f28f6840" style="stroke:#000000;stroke-width:0.8;"/>
    </defs>
    <g>
     <use style="fill:none;stroke:#000000;stroke-width:0.8;" x="385.599245" xlink:href="#m36f28f6840" y="384.48"/>
     <use style="fill:none;stroke:#000000;stroke-width:0.8;" x="385.599245" xlink:href="#m36f28f6840" y="384.48"/>
    </g>
    <defs>
     <path d="M 0 0 
L -0.427729 3.473766 
" id="m1bd9af131a" style="stroke:#000000;stroke-width:0.8;"/>
    </defs>
    <g>
     <use style="fill:none;stroke:#000000;stroke-width:0.8;" x="292.917528" xlink:href="#m1bd9af131a" y="384.48"/>
     <use style="fill:none;stroke:#000000;stroke-width:0.8;" x="292.917528" xlink:href="#m1bd9af131a" y="384.48"/>
    </g>
    <defs>
     <path d="M 0 0 
L -0.859778 3.392754 
" id="m1e9fc5faf5" style="stroke:#000000;stroke-width:0.8;"/>
    </defs>
    <g>
     <use style="fill:none;stroke:#000000;stroke-width:0.8;" x="199.185364" xlink:href="#m1e9fc5faf5" y="384.48"/>
     <use style="fill:none;stroke:#000000;stroke-width:0.8;" x="199.185364" xlink:href="#m1e9fc5faf5" y="384.48"/>
    </g>
    <defs>
     <path d="M 0 0 
L -3.487585 0.294535 
" id="m54ca45551e" style="stroke:#000000;stroke-width:0.8;"/>
    </defs>
    <g>
     <use style="fill:none;stroke:#000000;stroke-width:0.8;" x="85.265296" xlink:href="#m54ca45551e" y="85.364934"/>
     <use style="fill:none;stroke:#000000;stroke-width:0.8;" x="85.265296" xlink:href="#m54ca45551e" y="85.364934"/>
    </g>
    <defs>
     <path d="M 0 0 
L -3.471313 0.447198 
" id="m683557c8c6" style="stroke:#000000;stroke-width:0.8;"/>
    </defs>
    <g>
     <use style="fill:none;stroke:#000000;stroke-width:0.8;" x="85.265296" xlink:href="#m683557c8c6" y="178.196821"/>
     <use style="fill:none;stroke:#000000;stroke-width:0.8;" x="85.265296" xlink:href="#m683557c8c6" y="178.196821"/>
    </g>
    <defs>
     <path d="M 0 0 
L -3.381566 0.90278 
" id="m6a12a22c15" style="stroke:#000000;stroke-width:0.8;"/>
    </defs>
    <g>
     <use style="fill:none;stroke:#000000;stroke-width:0.8;" x="85.265296" xlink:href="#m6a12a22c15" y="272.125328"/>
     <use style="fill:none;stroke:#000000;stroke-width:0.8;" x="85.265296" xlink:href="#m6a12a22c15" y="272.125328"/>
    </g>
    <defs>
     <path d="M 0 0 
L -2.346641 -2.596782 
" id="mca0d1a82ad" style="stroke:#000000;stroke-width:0.8;"/>
    </defs>
    <g>
     <use style="fill:none;stroke:#000000;stroke-width:0.8;" x="452.001708" xlink:href="#mca0d1a82ad" y="51.84"/>
     <use style="fill:none;stroke:#000000;stroke-width:0.8;" x="452.001708" xlink:href="#mca0d1a82ad" y="51.84"/>
    </g>
    <defs>
     <path d="M 0 0 
L -2.930656 -1.913441 
" id="m5dd70c674f" style="stroke:#000000;stroke-width:0.8;"/>
    </defs>
    <g>
     <use style="fill:none;stroke:#000000;stroke-width:0.8;" x="311.054575" xlink:href="#m5dd70c674f" y="51.84"/>
     <use style="fill:none;stroke:#000000;stroke-width:0.8;" x="311.054575" xlink:href="#m5dd70c674f" y="51.84"/>
    </g>
    <defs>
     <path d="M 0 0 
L 1.806177 2.997954 
" id="m3941ca6d8f" style="stroke:#000000;stroke-width:0.8;"/>
    </defs>
    <g>
     <use style="fill:none;stroke:#000000;stroke-width:0.8;" x="505.134704" xlink:href="#m3941ca6d8f" y="123.517511"/>
     <use style="fill:none;stroke:#000000;stroke-width:0.8;" x="505.134704" xlink:href="#m3941ca6d8f" y="123.517511"/>
    </g>
    <g id="text_4">
     <!-- 87째 -->
     <g transform="translate(60.540296 88.285246)scale(0.1 -0.1)">
      <defs>
       <path d="M 2034 2216 
Q 1584 2216 1326 1975 
Q 1069 1734 1069 1313 
Q 1069 891 1326 650 
Q 1584 409 2034 409 
Q 2484 409 2743 651 
Q 3003 894 3003 1313 
Q 3003 1734 2745 1975 
Q 2488 2216 2034 2216 
z
M 1403 2484 
Q 997 2584 770 2862 
Q 544 3141 544 3541 
Q 544 4100 942 4425 
Q 1341 4750 2034 4750 
Q 2731 4750 3128 4425 
Q 3525 4100 3525 3541 
Q 3525 3141 3298 2862 
Q 3072 2584 2669 2484 
Q 3125 2378 3379 2068 
Q 3634 1759 3634 1313 
Q 3634 634 3220 271 
Q 2806 -91 2034 -91 
Q 1263 -91 848 271 
Q 434 634 434 1313 
Q 434 1759 690 2068 
Q 947 2378 1403 2484 
z
M 1172 3481 
Q 1172 3119 1398 2916 
Q 1625 2713 2034 2713 
Q 2441 2713 2670 2916 
Q 2900 3119 2900 3481 
Q 2900 3844 2670 4047 
Q 2441 4250 2034 4250 
Q 1625 4250 1398 4047 
Q 1172 3844 1172 3481 
z
" id="DejaVuSans-38" transform="scale(0.015625)"/>
       <path d="M 525 4666 
L 3525 4666 
L 3525 4397 
L 1831 0 
L 1172 0 
L 2766 4134 
L 525 4134 
L 525 4666 
z
" id="DejaVuSans-37" transform="scale(0.015625)"/>
       <path d="M 1600 4347 
Q 1350 4347 1178 4173 
Q 1006 4000 1006 3750 
Q 1006 3503 1178 3333 
Q 1350 3163 1600 3163 
Q 1850 3163 2022 3333 
Q 2194 3503 2194 3750 
Q 2194 3997 2020 4172 
Q 1847 4347 1600 4347 
z
M 1600 4750 
Q 1800 4750 1984 4673 
Q 2169 4597 2303 4453 
Q 2447 4313 2519 4134 
Q 2591 3956 2591 3750 
Q 2591 3338 2302 3052 
Q 2013 2766 1594 2766 
Q 1172 2766 890 3047 
Q 609 3328 609 3750 
Q 609 4169 896 4459 
Q 1184 4750 1600 4750 
z
" id="DejaVuSans-b0" transform="scale(0.015625)"/>
      </defs>
      <use xlink:href="#DejaVuSans-38"/>
      <use x="63.623047" xlink:href="#DejaVuSans-37"/>
      <use x="127.246094" xlink:href="#DejaVuSans-b0"/>
     </g>
    </g>
    <g id="text_5">
     <!-- 88째 -->
     <g transform="translate(60.540296 181.117133)scale(0.1 -0.1)">
      <use xlink:href="#DejaVuSans-38"/>
      <use x="63.623047" xlink:href="#DejaVuSans-38"/>
      <use x="127.246094" xlink:href="#DejaVuSans-b0"/>
     </g>
    </g>
    <g id="text_6">
     <!-- 89째 -->
     <g transform="translate(60.540296 275.04564)scale(0.1 -0.1)">
      <defs>
       <path d="M 703 97 
L 703 672 
Q 941 559 1184 500 
Q 1428 441 1663 441 
Q 2288 441 2617 861 
Q 2947 1281 2994 2138 
Q 2813 1869 2534 1725 
Q 2256 1581 1919 1581 
Q 1219 1581 811 2004 
Q 403 2428 403 3163 
Q 403 3881 828 4315 
Q 1253 4750 1959 4750 
Q 2769 4750 3195 4129 
Q 3622 3509 3622 2328 
Q 3622 1225 3098 567 
Q 2575 -91 1691 -91 
Q 1453 -91 1209 -44 
Q 966 3 703 97 
z
M 1959 2075 
Q 2384 2075 2632 2365 
Q 2881 2656 2881 3163 
Q 2881 3666 2632 3958 
Q 2384 4250 1959 4250 
Q 1534 4250 1286 3958 
Q 1038 3666 1038 3163 
Q 1038 2656 1286 2365 
Q 1534 2075 1959 2075 
z
" id="DejaVuSans-39" transform="scale(0.015625)"/>
      </defs>
      <use xlink:href="#DejaVuSans-38"/>
      <use x="63.623047" xlink:href="#DejaVuSans-39"/>
      <use x="127.246094" xlink:href="#DejaVuSans-b0"/>
     </g>
    </g>
   </g>
   <g id="ticks_3">
    <defs>
     <path d="M 0 0 
L -1.576161 3.125015 
" id="m652573b912" style="stroke:#000000;stroke-width:0.8;"/>
    </defs>
    <g>
     <use style="fill:none;stroke:#000000;stroke-width:0.8;" x="98.583231" xlink:href="#m652573b912" y="384.48"/>
     <use style="fill:none;stroke:#000000;stroke-width:0.8;" x="98.583231" xlink:href="#m652573b912" y="384.48"/>
    </g>
    <defs>
     <path d="M 0 0 
L 3.178546 1.465212 
" id="m37ed8159f8" style="stroke:#000000;stroke-width:0.8;"/>
    </defs>
    <g>
     <use style="fill:none;stroke:#000000;stroke-width:0.8;" x="158.58867" xlink:href="#m37ed8159f8" y="384.48"/>
     <use style="fill:none;stroke:#000000;stroke-width:0.8;" x="158.58867" xlink:href="#m37ed8159f8" y="384.48"/>
    </g>
    <defs>
     <path d="M 0 0 
L 1.524597 -3.150493 
" id="m83430df491" style="stroke:#000000;stroke-width:0.8;"/>
    </defs>
    <g>
     <use style="fill:none;stroke:#000000;stroke-width:0.8;" x="259.989099" xlink:href="#m83430df491" y="51.84"/>
     <use style="fill:none;stroke:#000000;stroke-width:0.8;" x="259.989099" xlink:href="#m83430df491" y="51.84"/>
    </g>
    <defs>
     <path d="M 0 0 
L -3.08622 -1.650832 
" id="m007671bded" style="stroke:#000000;stroke-width:0.8;"/>
    </defs>
    <g>
     <use style="fill:none;stroke:#000000;stroke-width:0.8;" x="85.265296" xlink:href="#m007671bded" y="348.99005"/>
     <use style="fill:none;stroke:#000000;stroke-width:0.8;" x="85.265296" xlink:href="#m007671bded" y="348.99005"/>
    </g>
    <g id="text_7">
     <!-- 270째 -->
     <g transform="translate(247.945349 42.760312)scale(0.1 -0.1)">
      <use xlink:href="#DejaVuSans-32"/>
      <use x="63.623047" xlink:href="#DejaVuSans-37"/>
      <use x="127.246094" xlink:href="#DejaVuSans-30"/>
      <use x="190.869141" xlink:href="#DejaVuSans-b0"/>
     </g>
    </g>
   </g>
   <g id="ticks_4">
    <defs>
     <path d="M 0 0 
L -0.211127 3.493626 
" id="m2b23fd5cec" style="stroke:#000000;stroke-width:0.8;"/>
    </defs>
    <g>
     <use style="fill:none;stroke:#000000;stroke-width:0.8;" x="478.073305" xlink:href="#m2b23fd5cec" y="384.48"/>
     <use style="fill:none;stroke:#000000;stroke-width:0.8;" x="478.073305" xlink:href="#m2b23fd5cec" y="384.48"/>
    </g>
    <defs>
     <path d="M 0 0 
L -0.283656 3.488487 
" id="m504d97c3f9" style="stroke:#000000;stroke-width:0.8;"/>
    </defs>
    <g>
     <use style="fill:none;stroke:#000000;stroke-width:0.8;" x="385.598843" xlink:href="#m504d97c3f9" y="384.48"/>
     <use style="fill:none;stroke:#000000;stroke-width:0.8;" x="385.598843" xlink:href="#m504d97c3f9" y="384.48"/>
    </g>
    <defs>
     <path d="M 0 0 
L -0.427723 3.473766 
" id="me39257191a" style="stroke:#000000;stroke-width:0.8;"/>
    </defs>
    <g>
     <use style="fill:none;stroke:#000000;stroke-width:0.8;" x="292.917142" xlink:href="#me39257191a" y="384.48"/>
     <use style="fill:none;stroke:#000000;stroke-width:0.8;" x="292.917142" xlink:href="#me39257191a" y="384.48"/>
    </g>
    <defs>
     <path d="M 0 0 
L -0.859764 3.392758 
" id="me4dcd3d96b" style="stroke:#000000;stroke-width:0.8;"/>
    </defs>
    <g>
     <use style="fill:none;stroke:#000000;stroke-width:0.8;" x="199.185027" xlink:href="#me4dcd3d96b" y="384.48"/>
     <use style="fill:none;stroke:#000000;stroke-width:0.8;" x="199.185027" xlink:href="#me4dcd3d96b" y="384.48"/>
    </g>
    <defs>
     <path d="M 0 0 
L 1.806171 2.997957 
" id="mdf72f8968a" style="stroke:#000000;stroke-width:0.8;"/>
    </defs>
    <g>
     <use style="fill:none;stroke:#000000;stroke-width:0.8;" x="505.134704" xlink:href="#mdf72f8968a" y="123.518588"/>
     <use style="fill:none;stroke:#000000;stroke-width:0.8;" x="505.134704" xlink:href="#mdf72f8968a" y="123.518588"/>
    </g>
    <defs>
     <path d="M 0 0 
L -2.346643 -2.59678 
" id="ma60ebacd72" style="stroke:#000000;stroke-width:0.8;"/>
    </defs>
    <g>
     <use style="fill:none;stroke:#000000;stroke-width:0.8;" x="452.000952" xlink:href="#ma60ebacd72" y="51.84"/>
     <use style="fill:none;stroke:#000000;stroke-width:0.8;" x="452.000952" xlink:href="#ma60ebacd72" y="51.84"/>
    </g>
    <defs>
     <path d="M 0 0 
L -2.930659 -1.913435 
" id="me55148548a" style="stroke:#000000;stroke-width:0.8;"/>
    </defs>
    <g>
     <use style="fill:none;stroke:#000000;stroke-width:0.8;" x="311.053595" xlink:href="#me55148548a" y="51.84"/>
     <use style="fill:none;stroke:#000000;stroke-width:0.8;" x="311.053595" xlink:href="#me55148548a" y="51.84"/>
    </g>
    <defs>
     <path d="M 0 0 
L -3.487585 0.294529 
" id="mcef0ca8099" style="stroke:#000000;stroke-width:0.8;"/>
    </defs>
    <g>
     <use style="fill:none;stroke:#000000;stroke-width:0.8;" x="85.265296" xlink:href="#mcef0ca8099" y="85.365252"/>
     <use style="fill:none;stroke:#000000;stroke-width:0.8;" x="85.265296" xlink:href="#mcef0ca8099" y="85.365252"/>
    </g>
    <defs>
     <path d="M 0 0 
L -3.471314 0.44719 
" id="mf95de0dca8" style="stroke:#000000;stroke-width:0.8;"/>
    </defs>
    <g>
     <use style="fill:none;stroke:#000000;stroke-width:0.8;" x="85.265296" xlink:href="#mf95de0dca8" y="178.197119"/>
     <use style="fill:none;stroke:#000000;stroke-width:0.8;" x="85.265296" xlink:href="#mf95de0dca8" y="178.197119"/>
    </g>
    <defs>
     <path d="M 0 0 
L -3.38157 0.902763 
" id="m883253a440" style="stroke:#000000;stroke-width:0.8;"/>
    </defs>
    <g>
     <use style="fill:none;stroke:#000000;stroke-width:0.8;" x="85.265296" xlink:href="#m883253a440" y="272.125565"/>
     <use style="fill:none;stroke:#000000;stroke-width:0.8;" x="85.265296" xlink:href="#m883253a440" y="272.125565"/>
    </g>
    <g id="text_8">
     <!-- 85째 -->
     <g transform="translate(512.134704 126.438901)scale(0.1 -0.1)">
      <defs>
       <path d="M 691 4666 
L 3169 4666 
L 3169 4134 
L 1269 4134 
L 1269 2991 
Q 1406 3038 1543 3061 
Q 1681 3084 1819 3084 
Q 2600 3084 3056 2656 
Q 3513 2228 3513 1497 
Q 3513 744 3044 326 
Q 2575 -91 1722 -91 
Q 1428 -91 1123 -41 
Q 819 9 494 109 
L 494 744 
Q 775 591 1075 516 
Q 1375 441 1709 441 
Q 2250 441 2565 725 
Q 2881 1009 2881 1497 
Q 2881 1984 2565 2268 
Q 2250 2553 1709 2553 
Q 1456 2553 1204 2497 
Q 953 2441 691 2322 
L 691 4666 
z
" id="DejaVuSans-35" transform="scale(0.015625)"/>
      </defs>
      <use xlink:href="#DejaVuSans-38"/>
      <use x="63.623047" xlink:href="#DejaVuSans-35"/>
      <use x="127.246094" xlink:href="#DejaVuSans-b0"/>
     </g>
    </g>
   </g>
   <g id="axis labels_1">
    <g id="text_9">
     <!-- RA -->
     <g transform="translate(288.505469 414.239375)scale(0.1 -0.1)">
      <defs>
       <path d="M 2841 2188 
Q 3044 2119 3236 1894 
Q 3428 1669 3622 1275 
L 4263 0 
L 3584 0 
L 2988 1197 
Q 2756 1666 2539 1819 
Q 2322 1972 1947 1972 
L 1259 1972 
L 1259 0 
L 628 0 
L 628 4666 
L 2053 4666 
Q 2853 4666 3247 4331 
Q 3641 3997 3641 3322 
Q 3641 2881 3436 2590 
Q 3231 2300 2841 2188 
z
M 1259 4147 
L 1259 2491 
L 2053 2491 
Q 2509 2491 2742 2702 
Q 2975 2913 2975 3322 
Q 2975 3731 2742 3939 
Q 2509 4147 2053 4147 
L 1259 4147 
z
" id="DejaVuSans-52" transform="scale(0.015625)"/>
       <path d="M 2188 4044 
L 1331 1722 
L 3047 1722 
L 2188 4044 
z
M 1831 4666 
L 2547 4666 
L 4325 0 
L 3669 0 
L 3244 1197 
L 1141 1197 
L 716 0 
L 50 0 
L 1831 4666 
z
" id="DejaVuSans-41" transform="scale(0.015625)"/>
      </defs>
      <use xlink:href="#DejaVuSans-52"/>
      <use x="65.482422" xlink:href="#DejaVuSans-41"/>
     </g>
    </g>
   </g>
   <g id="axis labels_2">
    <g id="text_10">
     <!-- Dec -->
     <g transform="translate(53.299671 227.835781)rotate(-90)scale(0.1 -0.1)">
      <defs>
       <path d="M 1259 4147 
L 1259 519 
L 2022 519 
Q 2988 519 3436 956 
Q 3884 1394 3884 2338 
Q 3884 3275 3436 3711 
Q 2988 4147 2022 4147 
L 1259 4147 
z
M 628 4666 
L 1925 4666 
Q 3281 4666 3915 4102 
Q 4550 3538 4550 2338 
Q 4550 1131 3912 565 
Q 3275 0 1925 0 
L 628 0 
L 628 4666 
z
" id="DejaVuSans-44" transform="scale(0.015625)"/>
       <path d="M 3597 1894 
L 3597 1613 
L 953 1613 
Q 991 1019 1311 708 
Q 1631 397 2203 397 
Q 2534 397 2845 478 
Q 3156 559 3463 722 
L 3463 178 
Q 3153 47 2828 -22 
Q 2503 -91 2169 -91 
Q 1331 -91 842 396 
Q 353 884 353 1716 
Q 353 2575 817 3079 
Q 1281 3584 2069 3584 
Q 2775 3584 3186 3129 
Q 3597 2675 3597 1894 
z
M 3022 2063 
Q 3016 2534 2758 2815 
Q 2500 3097 2075 3097 
Q 1594 3097 1305 2825 
Q 1016 2553 972 2059 
L 3022 2063 
z
" id="DejaVuSans-65" transform="scale(0.015625)"/>
       <path d="M 3122 3366 
L 3122 2828 
Q 2878 2963 2633 3030 
Q 2388 3097 2138 3097 
Q 1578 3097 1268 2742 
Q 959 2388 959 1747 
Q 959 1106 1268 751 
Q 1578 397 2138 397 
Q 2388 397 2633 464 
Q 2878 531 3122 666 
L 3122 134 
Q 2881 22 2623 -34 
Q 2366 -91 2075 -91 
Q 1284 -91 818 406 
Q 353 903 353 1747 
Q 353 2603 823 3093 
Q 1294 3584 2113 3584 
Q 2378 3584 2631 3529 
Q 2884 3475 3122 3366 
z
" id="DejaVuSans-63" transform="scale(0.015625)"/>
      </defs>
      <use xlink:href="#DejaVuSans-44"/>
      <use x="77.001953" xlink:href="#DejaVuSans-65"/>
      <use x="138.525391" xlink:href="#DejaVuSans-63"/>
     </g>
    </g>
   </g>
   <g id="axis labels_3">
    <g id="text_11">
     <!-- ra -->
     <g transform="translate(290.080469 27.92125)scale(0.1 -0.1)">
      <defs>
       <path d="M 2631 2963 
Q 2534 3019 2420 3045 
Q 2306 3072 2169 3072 
Q 1681 3072 1420 2755 
Q 1159 2438 1159 1844 
L 1159 0 
L 581 0 
L 581 3500 
L 1159 3500 
L 1159 2956 
Q 1341 3275 1631 3429 
Q 1922 3584 2338 3584 
Q 2397 3584 2469 3576 
Q 2541 3569 2628 3553 
L 2631 2963 
z
" id="DejaVuSans-72" transform="scale(0.015625)"/>
       <path d="M 2194 1759 
Q 1497 1759 1228 1600 
Q 959 1441 959 1056 
Q 959 750 1161 570 
Q 1363 391 1709 391 
Q 2188 391 2477 730 
Q 2766 1069 2766 1631 
L 2766 1759 
L 2194 1759 
z
M 3341 1997 
L 3341 0 
L 2766 0 
L 2766 531 
Q 2569 213 2275 61 
Q 1981 -91 1556 -91 
Q 1019 -91 701 211 
Q 384 513 384 1019 
Q 384 1609 779 1909 
Q 1175 2209 1959 2209 
L 2766 2209 
L 2766 2266 
Q 2766 2663 2505 2880 
Q 2244 3097 1772 3097 
Q 1472 3097 1187 3025 
Q 903 2953 641 2809 
L 641 3341 
Q 956 3463 1253 3523 
Q 1550 3584 1831 3584 
Q 2591 3584 2966 3190 
Q 3341 2797 3341 1997 
z
" id="DejaVuSans-61" transform="scale(0.015625)"/>
      </defs>
      <use xlink:href="#DejaVuSans-72"/>
      <use x="41.113281" xlink:href="#DejaVuSans-61"/>
     </g>
    </g>
   </g>
   <g id="axis labels_4">
    <g id="text_12">
     <!-- dec -->
     <g transform="translate(537.100329 209.16)rotate(-270)scale(0.1 -0.1)">
      <defs>
       <path d="M 2906 2969 
L 2906 4863 
L 3481 4863 
L 3481 0 
L 2906 0 
L 2906 525 
Q 2725 213 2448 61 
Q 2172 -91 1784 -91 
Q 1150 -91 751 415 
Q 353 922 353 1747 
Q 353 2572 751 3078 
Q 1150 3584 1784 3584 
Q 2172 3584 2448 3432 
Q 2725 3281 2906 2969 
z
M 947 1747 
Q 947 1113 1208 752 
Q 1469 391 1925 391 
Q 2381 391 2643 752 
Q 2906 1113 2906 1747 
Q 2906 2381 2643 2742 
Q 2381 3103 1925 3103 
Q 1469 3103 1208 2742 
Q 947 2381 947 1747 
z
" id="DejaVuSans-64" transform="scale(0.015625)"/>
      </defs>
      <use xlink:href="#DejaVuSans-64"/>
      <use x="63.476562" xlink:href="#DejaVuSans-65"/>
      <use x="125" xlink:href="#DejaVuSans-63"/>
     </g>
    </g>
   </g>
   <g id="line2d_1">
    <path d="M 85.265296 384.48 
L 505.134704 384.48 
" style="fill:none;stroke:#000000;stroke-linecap:square;stroke-width:0.8;"/>
   </g>
   <g id="line2d_2">
    <path d="M 505.134704 384.48 
L 505.134704 51.84 
" style="fill:none;stroke:#000000;stroke-linecap:square;stroke-width:0.8;"/>
   </g>
   <g id="line2d_3">
    <path d="M 505.134704 51.84 
L 85.265296 51.84 
" style="fill:none;stroke:#000000;stroke-linecap:square;stroke-width:0.8;"/>
   </g>
   <g id="line2d_4">
    <path d="M 85.265296 51.84 
L 85.265296 384.48 
" style="fill:none;stroke:#000000;stroke-linecap:square;stroke-width:0.8;"/>
   </g>
   <g id="line2d_5">
    <path clip-path="url(#p44d0e6080b)" d="M 455.208825 119.627218 
L 252.955284 151.301979 
L 225.936523 153.327823 
L 177.450371 157.934026 
L 104.350269 156.736919 
L 138.158473 156.39853 
L 130.639814 157.162589 
L 124.993881 158.078188 
L 130.376156 157.326338 
L 128.939563 157.710469 
L 130.805784 176.268062 
L 132.842298 216.451452 
L 133.210556 218.741482 
L 126.921627 219.045143 
L 125.521505 220.525287 
L 135.917984 219.552816 
L 134.490416 219.446407 
L 133.756371 217.629247 
L 134.240066 217.902732 
L 136.140835 217.764237 
L 136.820349 218.549184 
L 136.901554 218.558943 
" style="fill:none;stroke:#00ffff;stroke-linecap:square;stroke-opacity:0.3;"/>
   </g>
   <g id="line2d_6">
    <path clip-path="url(#p44d0e6080b)" d="M 459.698343 268.46193 
L 257.444801 300.136692 
L 230.42604 302.162536 
L 181.939889 306.768739 
L 108.839786 305.571632 
L 142.647991 305.233243 
L 135.129332 305.997302 
L 129.483398 306.912901 
L 134.865673 306.161051 
L 133.42908 306.545183 
L 135.295302 325.102775 
L 137.331815 365.286165 
L 137.700074 367.576196 
L 131.411145 367.879856 
L 130.011022 369.36 
L 140.407501 368.38753 
L 138.979934 368.28112 
L 138.245888 366.46396 
L 138.729584 366.737445 
L 140.630353 366.59895 
L 141.309867 367.383897 
L 141.391071 367.393657 
" style="fill:none;stroke:#00ff00;stroke-linecap:square;stroke-opacity:0.3;"/>
   </g>
   <g id="line2d_7">
    <path clip-path="url(#p44d0e6080b)" d="M 259.27958 296.735401 
L 362.499365 296.735412 
L 362.499371 238.727599 
L 259.279587 238.727588 
L 259.27958 296.735401 
" style="fill:none;stroke:#ff00ff;stroke-linecap:square;stroke-width:1.5;"/>
   </g>
   <g id="line2d_8">
    <path clip-path="url(#p44d0e6080b)" d="M 424.416377 69.037111 
L 428.035355 172.301611 
L 486.049731 170.257711 
L 482.460369 66.96 
L 424.416377 69.037111 
" style="fill:none;stroke:#0000ff;stroke-linecap:square;stroke-width:1.5;"/>
   </g>
   <g id="PathCollection_3">
    <defs>
     <path d="M -5 5 
L 5 -5 
M -5 -5 
L 5 5 
" id="m43a33a955c" style="stroke:#8b0000;stroke-width:1.5;"/>
    </defs>
    <g clip-path="url(#p44d0e6080b)">
     <use style="fill:#8b0000;stroke:#8b0000;stroke-width:1.5;" x="109.99605" xlink:href="#m43a33a955c" y="360.960622"/>
    </g>
   </g>
   <g id="PathCollection_4">
    <defs>
     <path d="M -5 5 
L 5 -5 
M -5 -5 
L 5 5 
" id="mfebb45beb6" style="stroke:#ff0000;stroke-width:1.5;"/>
    </defs>
    <g clip-path="url(#p44d0e6080b)">
     <use style="fill:#ff0000;stroke:#ff0000;stroke-width:1.5;" x="119.905852" xlink:href="#mfebb45beb6" y="365.727749"/>
    </g>
   </g>
   <g id="PathCollection_5">
    <defs>
     <path d="M -5 5 
L 5 -5 
M -5 -5 
L 5 5 
" id="mfa010d5375" style="stroke:#ff00ff;stroke-width:1.5;"/>
    </defs>
    <g clip-path="url(#p44d0e6080b)">
     <use style="fill:#ff00ff;stroke:#ff00ff;stroke-width:1.5;" x="310.862818" xlink:href="#mfa010d5375" y="267.758158"/>
    </g>
   </g>
   <g id="PathCollection_6">
    <defs>
     <path d="M -5 5 
L 5 -5 
M -5 -5 
L 5 5 
" id="m3a4a88663b" style="stroke:#0000ff;stroke-width:1.5;"/>
    </defs>
    <g clip-path="url(#p44d0e6080b)">
     <use style="fill:#0000ff;stroke:#0000ff;stroke-width:1.5;" x="455.208825" xlink:href="#m3a4a88663b" y="119.627218"/>
    </g>
   </g>
   <g id="PathCollection_7">
    <defs>
     <path d="M -5 5 
L 5 -5 
M -5 -5 
L 5 5 
" id="m6ae81da125" style="stroke:#008000;stroke-width:1.5;"/>
    </defs>
    <g clip-path="url(#p44d0e6080b)">
     <use style="fill:#008000;stroke:#008000;stroke-width:1.5;" x="459.698343" xlink:href="#m6ae81da125" y="268.46193"/>
    </g>
   </g>
   <g id="legend_1">
    <g id="patch_13">
     <path d="M 406.334704 379.48 
L 498.134704 379.48 
Q 500.134704 379.48 500.134704 377.48 
L 500.134704 275.71125 
Q 500.134704 273.71125 498.134704 273.71125 
L 406.334704 273.71125 
Q 404.334704 273.71125 404.334704 275.71125 
L 404.334704 377.48 
Q 404.334704 379.48 406.334704 379.48 
z
" style="fill:#ffffff;opacity:0.8;stroke:#cccccc;stroke-linejoin:miter;"/>
    </g>
    <g id="PathCollection_8">
     <g>
      <use style="fill:#8b0000;stroke:#8b0000;stroke-width:1.5;" x="418.334704" xlink:href="#m43a33a955c" y="282.68625"/>
     </g>
    </g>
    <g id="text_13">
     <!-- $CP$ (J2000) -->
     <g transform="translate(436.334704 285.31125)scale(0.1 -0.1)">
      <defs>
       <path d="M 4447 4306 
L 4319 3641 
Q 4019 3944 3683 4091 
Q 3347 4238 2956 4238 
Q 2422 4238 2017 3981 
Q 1613 3725 1319 3200 
Q 1131 2863 1032 2486 
Q 934 2109 934 1728 
Q 934 1091 1264 756 
Q 1594 422 2222 422 
Q 2656 422 3056 561 
Q 3456 700 3834 978 
L 3688 231 
Q 3316 72 2936 -9 
Q 2556 -91 2175 -91 
Q 1278 -91 773 396 
Q 269 884 269 1753 
Q 269 2309 461 2846 
Q 653 3384 1013 3828 
Q 1394 4300 1883 4525 
Q 2372 4750 3022 4750 
Q 3422 4750 3780 4639 
Q 4138 4528 4447 4306 
z
" id="DejaVuSans-Oblique-43" transform="scale(0.015625)"/>
       <path d="M 1081 4666 
L 2541 4666 
Q 3178 4666 3512 4369 
Q 3847 4072 3847 3500 
Q 3847 2731 3353 2303 
Q 2859 1875 1966 1875 
L 1172 1875 
L 806 0 
L 172 0 
L 1081 4666 
z
M 1613 4147 
L 1275 2394 
L 2069 2394 
Q 2606 2394 2893 2669 
Q 3181 2944 3181 3456 
Q 3181 3784 2986 3965 
Q 2791 4147 2438 4147 
L 1613 4147 
z
" id="DejaVuSans-Oblique-50" transform="scale(0.015625)"/>
       <path id="DejaVuSans-20" transform="scale(0.015625)"/>
       <path d="M 1984 4856 
Q 1566 4138 1362 3434 
Q 1159 2731 1159 2009 
Q 1159 1288 1364 580 
Q 1569 -128 1984 -844 
L 1484 -844 
Q 1016 -109 783 600 
Q 550 1309 550 2009 
Q 550 2706 781 3412 
Q 1013 4119 1484 4856 
L 1984 4856 
z
" id="DejaVuSans-28" transform="scale(0.015625)"/>
       <path d="M 628 4666 
L 1259 4666 
L 1259 325 
Q 1259 -519 939 -900 
Q 619 -1281 -91 -1281 
L -331 -1281 
L -331 -750 
L -134 -750 
Q 284 -750 456 -515 
Q 628 -281 628 325 
L 628 4666 
z
" id="DejaVuSans-4a" transform="scale(0.015625)"/>
       <path d="M 513 4856 
L 1013 4856 
Q 1481 4119 1714 3412 
Q 1947 2706 1947 2009 
Q 1947 1309 1714 600 
Q 1481 -109 1013 -844 
L 513 -844 
Q 928 -128 1133 580 
Q 1338 1288 1338 2009 
Q 1338 2731 1133 3434 
Q 928 4138 513 4856 
z
" id="DejaVuSans-29" transform="scale(0.015625)"/>
      </defs>
      <use transform="translate(0 0.125)" xlink:href="#DejaVuSans-Oblique-43"/>
      <use transform="translate(69.824219 0.125)" xlink:href="#DejaVuSans-Oblique-50"/>
      <use transform="translate(130.126953 0.125)" xlink:href="#DejaVuSans-20"/>
      <use transform="translate(161.914062 0.125)" xlink:href="#DejaVuSans-28"/>
      <use transform="translate(200.927734 0.125)" xlink:href="#DejaVuSans-4a"/>
      <use transform="translate(230.419922 0.125)" xlink:href="#DejaVuSans-32"/>
      <use transform="translate(294.042969 0.125)" xlink:href="#DejaVuSans-30"/>
      <use transform="translate(357.666016 0.125)" xlink:href="#DejaVuSans-30"/>
      <use transform="translate(421.289062 0.125)" xlink:href="#DejaVuSans-30"/>
      <use transform="translate(484.912109 0.125)" xlink:href="#DejaVuSans-29"/>
     </g>
    </g>
    <g id="PathCollection_9">
     <g>
      <use style="fill:#ff0000;stroke:#ff0000;stroke-width:1.5;" x="418.334704" xlink:href="#mfebb45beb6" y="297.384687"/>
     </g>
    </g>
    <g id="text_14">
     <!-- $CP$ (to date) -->
     <g transform="translate(436.334704 300.009687)scale(0.1 -0.1)">
      <defs>
       <path d="M 1172 4494 
L 1172 3500 
L 2356 3500 
L 2356 3053 
L 1172 3053 
L 1172 1153 
Q 1172 725 1289 603 
Q 1406 481 1766 481 
L 2356 481 
L 2356 0 
L 1766 0 
Q 1100 0 847 248 
Q 594 497 594 1153 
L 594 3053 
L 172 3053 
L 172 3500 
L 594 3500 
L 594 4494 
L 1172 4494 
z
" id="DejaVuSans-74" transform="scale(0.015625)"/>
       <path d="M 1959 3097 
Q 1497 3097 1228 2736 
Q 959 2375 959 1747 
Q 959 1119 1226 758 
Q 1494 397 1959 397 
Q 2419 397 2687 759 
Q 2956 1122 2956 1747 
Q 2956 2369 2687 2733 
Q 2419 3097 1959 3097 
z
M 1959 3584 
Q 2709 3584 3137 3096 
Q 3566 2609 3566 1747 
Q 3566 888 3137 398 
Q 2709 -91 1959 -91 
Q 1206 -91 779 398 
Q 353 888 353 1747 
Q 353 2609 779 3096 
Q 1206 3584 1959 3584 
z
" id="DejaVuSans-6f" transform="scale(0.015625)"/>
      </defs>
      <use transform="translate(0 0.015625)" xlink:href="#DejaVuSans-Oblique-43"/>
      <use transform="translate(69.824219 0.015625)" xlink:href="#DejaVuSans-Oblique-50"/>
      <use transform="translate(130.126953 0.015625)" xlink:href="#DejaVuSans-20"/>
      <use transform="translate(161.914062 0.015625)" xlink:href="#DejaVuSans-28"/>
      <use transform="translate(200.927734 0.015625)" xlink:href="#DejaVuSans-74"/>
      <use transform="translate(240.136719 0.015625)" xlink:href="#DejaVuSans-6f"/>
      <use transform="translate(301.318359 0.015625)" xlink:href="#DejaVuSans-20"/>
      <use transform="translate(333.105469 0.015625)" xlink:href="#DejaVuSans-64"/>
      <use transform="translate(396.582031 0.015625)" xlink:href="#DejaVuSans-61"/>
      <use transform="translate(457.861328 0.015625)" xlink:href="#DejaVuSans-74"/>
      <use transform="translate(497.070312 0.015625)" xlink:href="#DejaVuSans-65"/>
      <use transform="translate(558.59375 0.015625)" xlink:href="#DejaVuSans-29"/>
     </g>
    </g>
    <g id="PathCollection_10">
     <g>
      <use style="fill:#ff00ff;stroke:#ff00ff;stroke-width:1.5;" x="418.334704" xlink:href="#mfa010d5375" y="312.062812"/>
     </g>
    </g>
    <g id="text_15">
     <!-- $A$ -->
     <g transform="translate(436.334704 314.687812)scale(0.1 -0.1)">
      <defs>
       <path d="M 2356 4666 
L 3072 4666 
L 3938 0 
L 3278 0 
L 3084 1197 
L 984 1197 
L 325 0 
L -341 0 
L 2356 4666 
z
M 2584 4044 
L 1275 1722 
L 2988 1722 
L 2584 4044 
z
" id="DejaVuSans-Oblique-41" transform="scale(0.015625)"/>
      </defs>
      <use transform="translate(0 0.09375)" xlink:href="#DejaVuSans-Oblique-41"/>
     </g>
    </g>
    <g id="PathCollection_11">
     <g>
      <use style="fill:#0000ff;stroke:#0000ff;stroke-width:1.5;" x="418.334704" xlink:href="#m3a4a88663b" y="326.740937"/>
     </g>
    </g>
    <g id="text_16">
     <!-- $B$ -->
     <g transform="translate(436.334704 329.365937)scale(0.1 -0.1)">
      <defs>
       <path d="M 1081 4666 
L 2694 4666 
Q 3350 4666 3675 4422 
Q 4000 4178 4000 3688 
Q 4000 3238 3720 2911 
Q 3441 2584 2988 2516 
Q 3375 2428 3569 2181 
Q 3763 1934 3763 1522 
Q 3763 819 3242 409 
Q 2722 0 1819 0 
L 172 0 
L 1081 4666 
z
M 1234 2228 
L 903 519 
L 1919 519 
Q 2491 519 2800 781 
Q 3109 1044 3109 1522 
Q 3109 1891 2904 2059 
Q 2700 2228 2247 2228 
L 1234 2228 
z
M 1606 4147 
L 1331 2741 
L 2272 2741 
Q 2775 2741 3058 2959 
Q 3341 3178 3341 3566 
Q 3341 3869 3150 4008 
Q 2959 4147 2541 4147 
L 1606 4147 
z
" id="DejaVuSans-Oblique-42" transform="scale(0.015625)"/>
      </defs>
      <use transform="translate(0 0.09375)" xlink:href="#DejaVuSans-Oblique-42"/>
     </g>
    </g>
    <g id="PathCollection_12">
     <g>
      <use style="fill:#008000;stroke:#008000;stroke-width:1.5;" x="418.334704" xlink:href="#m6ae81da125" y="341.419062"/>
     </g>
    </g>
    <g id="text_17">
     <!-- $R_0$ -->
     <g transform="translate(436.334704 344.044062)scale(0.1 -0.1)">
      <defs>
       <path d="M 1613 4147 
L 1294 2491 
L 2106 2491 
Q 2584 2491 2879 2755 
Q 3175 3019 3175 3444 
Q 3175 3784 2976 3965 
Q 2778 4147 2406 4147 
L 1613 4147 
z
M 2772 2241 
Q 2972 2194 3105 2009 
Q 3238 1825 3413 1275 
L 3809 0 
L 3144 0 
L 2778 1197 
Q 2638 1659 2453 1815 
Q 2269 1972 1888 1972 
L 1191 1972 
L 806 0 
L 172 0 
L 1081 4666 
L 2503 4666 
Q 3150 4666 3495 4373 
Q 3841 4081 3841 3531 
Q 3841 3044 3547 2687 
Q 3253 2331 2772 2241 
z
" id="DejaVuSans-Oblique-52" transform="scale(0.015625)"/>
      </defs>
      <use transform="translate(0 0.09375)" xlink:href="#DejaVuSans-Oblique-52"/>
      <use transform="translate(69.482422 -16.3125)scale(0.7)" xlink:href="#DejaVuSans-30"/>
     </g>
    </g>
    <g id="PathCollection_13">
     <g>
      <use style="fill:#00ffff;stroke:#00ffff;" x="418.334704" xlink:href="#mf9bc8144d5" y="356.097188"/>
     </g>
    </g>
    <g id="text_18">
     <!-- $I_i$ -->
     <g transform="translate(436.334704 358.722188)scale(0.1 -0.1)">
      <defs>
       <path d="M 1081 4666 
L 1716 4666 
L 806 0 
L 172 0 
L 1081 4666 
z
" id="DejaVuSans-Oblique-49" transform="scale(0.015625)"/>
       <path d="M 1172 4863 
L 1747 4863 
L 1606 4134 
L 1031 4134 
L 1172 4863 
z
M 909 3500 
L 1484 3500 
L 800 0 
L 225 0 
L 909 3500 
z
" id="DejaVuSans-Oblique-69" transform="scale(0.015625)"/>
      </defs>
      <use transform="translate(0 0.09375)" xlink:href="#DejaVuSans-Oblique-49"/>
      <use transform="translate(29.492188 -16.3125)scale(0.7)" xlink:href="#DejaVuSans-Oblique-69"/>
     </g>
    </g>
    <g id="PathCollection_14">
     <g>
      <use style="fill:#00ff00;stroke:#00ff00;" x="418.334704" xlink:href="#m3c0695b059" y="370.775312"/>
     </g>
    </g>
    <g id="text_19">
     <!-- $R_i$ -->
     <g transform="translate(436.334704 373.400312)scale(0.1 -0.1)">
      <use transform="translate(0 0.09375)" xlink:href="#DejaVuSans-Oblique-52"/>
      <use transform="translate(69.482422 -16.3125)scale(0.7)" xlink:href="#DejaVuSans-Oblique-69"/>
     </g>
    </g>
   </g>
  </g>
 </g>
 <defs>
  <clipPath id="p44d0e6080b">
   <path d="M 85.265296 384.48 
L 505.134704 384.48 
L 505.134704 384.48 
L 505.134704 51.84 
L 505.134704 51.84 
L 85.265296 51.84 
L 85.265296 51.84 
L 85.265296 384.48 
"/>
  </clipPath>
  <clipPath id="p32aabecb3c">
   <path d="M 85.265296 384.48 
L 505.134704 384.48 
L 505.134704 384.48 
L 505.134704 51.84 
L 505.134704 51.84 
L 85.265296 51.84 
L 85.265296 51.84 
L 85.265296 384.48 
"/>
  </clipPath>
 </defs>
</svg>
